<svg xmlns="http://www.w3.org/2000/svg" width="512" height="319" viewBox="0 0 385 240"><path fill="#fefefe" fill-rule="evenodd" stroke="#000" stroke-linecap="round" stroke-width="3.1217" d="M171.0263 229.7791c11.9177-19.0128 15.6256-41.7699-11.1868-36.4057s-47.0376 10.5896-80.154 9.9999-67.398-25.83-71.045-57.4592C4.9935 114.285 14.164 89.223 33.6158 64.5428c19.4517-24.68 80.1824-58.3616 140.6498-55.4489s74.1328 23.2083 103.56 20.6576 48.2666-4.522 68.5089 1.6553 30.029 15.4615 30.7588 43.4613-7.0315 37.6004-16.3598 54.5733c-9.3283 16.9728-24.7617 31.1768-41.0157 42.7113-16.254 11.5344-20.8757 17.1197-38.8814 17.2294-18.0057.1098-44.9752-8.7749-60.0529-.9602-12.2565 9.6318-20.4699 31.0818-49.7572 41.3572z" color="#000" overflow="visible" style="marker:none"/></svg>