<svg xmlns="http://www.w3.org/2000/svg" width="512" height="319" viewBox="0 0 385 240"><path d="M202.101 229.905c-12.822-15.927-1.63-37.043-22.27-37.774-31.385 10.209-48.383 9.715-91.252 11.496C45.709 205.41 5.88 176.9 7.116 136.88c1.234-40.02 15.93-56.995 29.169-78.047C48.625 39.517 69.66 26.42 90.944 18.89c12.279-4.541 25.158-6.527 37.84-9.46 16.91-4.326 25.08-.752 40.47-1.052 21.328 4.467 36.7 9.287 54.396 14.98 38.7 11.53 43.928 5.463 86.981 4.992 21.456.261 37.591-1.382 50.98 15.242 7.626 12.208 15.303 26.743 16.293 43.622-2.985 16.06-10.69 29.94-19.972 45.199-8.009 14.535-22.641 24.743-34.424 36.527-16.953 12.501-37.921 18.157-58.864 20.76-8.76 0-28.819-4.468-37.578-4.468-24.485-.925-24.78 21.39-24.965 44.673z" style="marker:none" color="#000" display="inline" overflow="visible" visibility="visible" fill="#fefefe" fill-opacity="1" fill-rule="evenodd" stroke="#000" stroke-width="3.12172" stroke-linecap="round" stroke-linejoin="miter" stroke-miterlimit="4" stroke-dasharray="none" stroke-dashoffset="0" stroke-opacity="1" marker-start="none" marker-mid="none" marker-end="none"/></svg>