<svg xmlns:svg="http://www.w3.org/2000/svg" xmlns="http://www.w3.org/2000/svg" width="512" height="367" viewBox="111.6 205.7 590.5 423.6"><defs
     id="defs5391"><clipPath
       clipPathUnits="userSpaceOnUse"
       id="clipPath5403"><path
         d="M 0,600 H 600 V 0 H 0 Z"
         id="path5401"
         /></clipPath></defs><g
     id="g5395"
    
    
     transform="matrix(1.3333333,0,0,-1.3333333,0,800)"><g
       id="g5397"><g
         id="g5399"
         clip-path="url(#clipPath5403)"><path
           d="m 430.466,203.166 c 27.541,15.857 17.47,10.527 21.555,12.975 -45.943,-26.633 -20.247,-12.343 -21.555,-12.975"
           style="fill:#ed1c24;fill-opacity:1;fill-rule:nonzero;stroke:none"
           id="path5405"
           /><path
           d="m 454.973,229.494 -7.776,-5.136 32.447,20.836 4.056,2.605 2.028,1.302 0.506,0.326 0.254,0.162 0.127,0.082 0.031,0.019 c -2.899,4.784 -0.812,1.321 -1.464,2.386 l -0.016,-0.01 -0.065,-0.038 -1.04,-0.608 -8.323,-4.865 -16.644,-9.731 14.648,8.53 7.325,4.264 3.662,2.132 0.458,0.267 0.029,0.016 c -1.241,2.061 1.709,-2.795 1.397,-2.3 l -0.013,-0.008 -0.056,-0.037 -0.112,-0.071 -0.223,-0.142 -0.893,-0.572 -1.785,-1.141 z"
           style="fill:#ed1c24;fill-opacity:1;fill-rule:nonzero;stroke:none"
           id="path5407"
           /><path
           d="m 484.188,261.937 c 2.533,1.41 5.348,2.991 8.421,4.727 l 0.288,0.163 0.146,0.082 c -0.285,0.523 2.677,-4.445 1.403,-2.354 l -0.036,-0.023 -0.07,-0.044 -0.572,-0.353 -1.161,-0.718 -2.389,-1.481 c -1.623,-1.008 -3.305,-2.054 -5.043,-3.137 -6.953,-4.332 -14.803,-9.252 -23.339,-14.622 -17.073,-10.74 -36.893,-23.279 -57.783,-36.509 -20.891,-13.23 -42.851,-27.153 -64.205,-40.662 -10.677,-6.754 -21.202,-13.404 -31.366,-19.814 l -3.794,-2.391 -1.883,-1.187 -0.939,-0.592 -0.234,-0.147 c -0.664,1.056 1.404,-2.415 -1.504,2.358 l 0.06,0.035 0.12,0.069 0.478,0.275 7.574,4.363 c 4.992,2.872 9.864,5.671 14.589,8.381 l 12.633,7.105 33.778,20.166 c -11.468,-6.635 -23.364,-13.522 -35.527,-20.565 -6.081,-3.522 -12.229,-7.083 -18.425,-10.672 l -9.325,-5.404 -4.685,-2.714 -1.172,-0.679 -0.147,-0.085 -0.074,-0.043 c 3.42,-5.689 0.99,-1.551 1.771,-2.809 l 0.287,0.182 0.573,0.362 2.295,1.453 c 24.486,15.502 49.395,31.277 73.482,46.521 24.087,15.245 47.353,29.961 68.554,43.347 10.6,6.693 20.685,13.054 30.098,18.983 4.706,2.964 9.246,5.82 13.596,8.556 l 3.229,2.029 0.398,0.25 0.199,0.125 c 1.364,-2.24 -1.793,3.094 -1.496,2.528 l -0.051,-0.029 -0.101,-0.059 -0.811,-0.466 -1.606,-0.922 c -2.129,-1.224 -4.208,-2.417 -6.234,-3.579"
           style="fill:#ed1c24;fill-opacity:1;fill-rule:nonzero;stroke:none"
           id="path5409"
           /><path
           d="m 311.629,158.041 c -6.906,-4.085 5.076,3.355 6.307,4.12 0.616,0.382 -1.457,-0.904 -9.921,-6.135 -4.233,-2.615 -10.063,-6.216 -17.955,-11.088 l -3.058,-1.887 -0.396,-0.244 -0.199,-0.123 -0.099,-0.062 -0.051,-0.031 c -1.333,2.22 2.915,-5.012 -3.002,4.969 l 0.821,0.475 1.681,0.974 c 2.275,1.318 4.689,2.717 7.248,4.199 5.12,2.966 10.821,6.268 17.165,9.941 -5.126,-2.923 -6.569,-3.736 -9.628,-5.476 -4.571,-2.642 -9.995,-5.775 -16.955,-9.79 l -0.327,-0.189 -0.041,-0.024 -0.021,-0.012 -0.01,-0.006 c 6.175,-10.357 1.718,-2.867 3.099,-5.177 l 0.081,0.049 0.162,0.1 0.655,0.403 1.338,0.823 2.789,1.713 c 1.911,1.174 3.927,2.413 6.058,3.722 4.263,2.618 8.987,5.52 14.259,8.756"
           style="fill:#ed1c24;fill-opacity:1;fill-rule:nonzero;stroke:none"
           id="path5411"
           /><path
           d="m 300.542,157.673 c 44.635,25.793 -29.342,-16.671 0,0"
           style="fill:#ed1c24;fill-opacity:1;fill-rule:nonzero;stroke:none"
           id="path5413"
           /><path
           d="m 471.924,256.84 -57.711,-35.788 c 12.077,7.236 63.678,38.93 44.607,27.059 14.795,9.141 25.126,15.536 31.771,19.669 1.661,1.033 3.093,1.925 4.305,2.683 l 0.445,0.278 0.215,0.134 0.105,0.066 0.052,0.033 c 0.739,-1.222 -6.364,10.681 -3.364,5.638 l -0.014,-0.008 -0.026,-0.015 -0.802,-0.472 c -0.507,-0.299 -0.96,-0.566 -1.361,-0.804 -1.605,-0.951 -2.372,-1.418 -2.399,-1.46 -0.028,-0.043 0.683,0.339 2.033,1.09 0.676,0.375 1.511,0.843 2.494,1.396 l 0.092,0.052 0.047,0.026 0.024,0.013 0.011,0.007 c 1.409,-2.36 -3.136,5.291 3.161,-5.29 l -0.185,-0.111 -0.384,-0.229 -0.806,-0.485 -1.765,-1.061 c -4.981,-2.999 -12.089,-7.299 -20.545,-12.421"
           style="fill:#ed1c24;fill-opacity:1;fill-rule:nonzero;stroke:none"
           id="path5415"
           /><path
           d="m 461.033,257.443 30.429,17.688 c -5.324,-2.994 -13.404,-7.632 -30.429,-17.688"
           style="fill:#ed1c24;fill-opacity:1;fill-rule:nonzero;stroke:none"
           id="path5417"
           /><path
           d="m 433.026,233.143 31.773,19.672 15.886,9.836 7.943,4.918 3.972,2.459 1.986,1.23 0.496,0.307 0.124,0.078 0.063,0.038 c -1.117,1.877 2.518,-4.188 -2.498,4.211 l -0.016,-0.009 -0.031,-0.019 -0.253,-0.147 -1.009,-0.586 0.79,0.443 0.38,0.213 0.094,0.052 0.046,0.026 0.012,0.007 c -0.536,0.907 4.7,-7.886 2.481,-4.166 l -0.006,-0.003 -0.023,-0.014 -0.181,-0.108 -1.379,-0.819 c -0.882,-0.523 -1.697,-1.005 -2.497,-1.479 -1.601,-0.948 -3.142,-1.864 -5.032,-3.015 -3.779,-2.302 -8.956,-5.543 -18.807,-11.854 5.18,3.435 -7.323,-4.494 -34.314,-21.271"
           style="fill:#ed1c24;fill-opacity:1;fill-rule:nonzero;stroke:none"
           id="path5419"
           /><path
           d="m 396.994,211.108 c -32.44,-19.771 -74.462,-45.503 -16.485,-9.552 -110.695,-68.2 -94.032,-58.539 16.485,9.552"
           style="fill:#ed1c24;fill-opacity:1;fill-rule:nonzero;stroke:none"
           id="path5421"
           /><path
           d="m 462.952,248.823 22.106,12.642 5.526,3.161 2.764,1.58 c 0.703,-2.439 -1.356,-1.645 -1.898,-2.627 l -10.796,-6.749 -37.081,-23.677 c 9.248,5.906 30.024,18.954 48.132,30.337 l 1.69,1.063 0.419,0.263 0.209,0.132 0.105,0.066 0.026,0.016 c 0.756,-1.239 -0.995,1.71 -0.829,1.398 l -0.054,-0.032 -0.853,-0.49 -3.355,-1.93 c -2.205,-1.269 -4.337,-2.497 -6.371,-3.667 -4.067,-2.342 -7.737,-4.457 -10.782,-6.218 -6.09,-3.521 -9.681,-5.62 -8.958,-5.268"
           style="fill:#ed1c24;fill-opacity:1;fill-rule:nonzero;stroke:none"
           id="path5423"
           /><path
           d="m 408.927,226.613 c 3.523,2.372 -19.55,-11.687 -23.959,-14.202 l -42.534,-26.673 c 21.939,13.53 63.473,39.262 66.493,40.875"
           style="fill:#ed1c24;fill-opacity:1;fill-rule:nonzero;stroke:none"
           id="path5425"
           /><path
           d="m 384.968,212.411 63.583,39.872 c -56.969,-35.415 -67.276,-41.971 -63.583,-39.872"
           style="fill:#ed1c24;fill-opacity:1;fill-rule:nonzero;stroke:none"
           id="path5427"
           /><path
           d="m 451.03,250.752 26.603,15.517 13.301,7.757 1.662,0.97 0.416,0.242 0.103,0.061 c 3.603,-6.053 0.985,-1.687 1.781,-3.042 l -0.025,-0.016 -0.051,-0.032 -0.204,-0.127 -0.817,-0.508 -3.271,-2.031 -6.54,-4.063 -52.319,-32.501 62.458,38.741 0.487,0.302 0.244,0.152 0.062,0.038 c -0.82,1.393 1.878,-3.094 -1.831,3.13 l -0.03,-0.018 -0.124,-0.072 -0.994,-0.578 -1.984,-1.156 -3.97,-2.312 -7.938,-4.624 -15.878,-9.246 -31.756,-18.495 z"
           style="fill:#ed1c24;fill-opacity:1;fill-rule:nonzero;stroke:none"
           id="path5429"
           /><path
           d="m 342.891,200.09 36.67,21.577 -65.357,-38.348 z"
           style="fill:#ed1c24;fill-opacity:1;fill-rule:nonzero;stroke:none"
           id="path5431"
           /><path
           d="m 346.922,197.527 c -26.734,-16.602 37.136,22.012 8.751,4.536 44.105,26.889 81.651,50.019 115.496,70.869 C 435.15,250.876 396.75,227.557 346.922,197.527"
           style="fill:#ed1c24;fill-opacity:1;fill-rule:nonzero;stroke:none"
           id="path5433"
           /><path
           d="m 479.463,286.098 c 4.563,2.654 9.164,5.335 13.818,8.048 l 7.023,4.099 1.77,1.033 0.111,0.064 0.055,0.033 0.028,0.016 c -2.832,4.791 3.877,-6.515 3.178,-5.356 l -0.013,-0.008 -0.219,-0.134 -0.439,-0.27 -0.876,-0.539 -3.521,-2.166 c -9.423,-5.797 -19.117,-11.77 -29.209,-17.986 9.534,5.839 18.998,11.643 28.444,17.451 l 3.542,2.179 1.771,1.088 0.442,0.273 0.111,0.068 c -6.459,10.895 -1.798,3.016 -3.244,5.445 l -0.013,-0.008 -0.029,-0.016 -0.056,-0.033 -0.224,-0.131 -0.897,-0.525 -7.179,-4.199 z"
           style="fill:#ed1c24;fill-opacity:1;fill-rule:nonzero;stroke:none"
           id="path5435"
           /><path
           d="m 440.023,255.241 c -5.066,-2.819 -14.869,-8.199 -51.406,-29.178 l 25.764,14.38 c 7.801,4.501 16.677,9.624 25.642,14.798"
           style="fill:#ed1c24;fill-opacity:1;fill-rule:nonzero;stroke:none"
           id="path5437"
           /><path
           d="m 415.284,240.95 -0.903,-0.507 c -27.796,-16.037 -46.985,-27.104 -55.235,-31.862 7.083,4.086 24.033,13.858 56.138,32.369"
           style="fill:#ed1c24;fill-opacity:1;fill-rule:nonzero;stroke:none"
           id="path5439"
           /><path
           d="m 446.479,258.966 c -2.421,-1.397 -4.125,-2.379 -6.456,-3.725 2.442,1.362 3.973,2.23 6.456,3.725"
           style="fill:#ed1c24;fill-opacity:1;fill-rule:nonzero;stroke:none"
           id="path5441"
           /><path
           d="m 280.416,152.694 -0.449,-0.261 -0.225,-0.132 c 3.971,-6.604 1.117,-1.821 2.01,-3.29 l 0.028,0.017 0.055,0.035 0.112,0.07 0.896,0.564 1.833,1.155 3.813,2.399 c 2.602,1.637 5.316,3.344 8.092,5.089 5.554,3.492 11.362,7.143 17.047,10.718 11.369,7.149 22.241,13.992 29.581,18.641 14.682,9.299 15.237,9.827 -22.608,-13.508 -13.371,-8.492 -9.217,-6.054 -8.74,-5.915 0.239,0.07 -0.442,-0.434 -4.691,-3.167 -2.125,-1.366 -5.142,-3.289 -9.382,-5.975 -2.121,-1.343 -4.547,-2.877 -7.32,-4.628 -1.387,-0.875 -2.86,-1.805 -4.426,-2.792 l -2.417,-1.524 -1.263,-0.794 -0.32,-0.203 -0.162,-0.101 -0.081,-0.052 -0.04,-0.025 c -0.892,1.47 1.939,-3.327 -2.01,3.29 z"
           style="fill:#ed1c24;fill-opacity:1;fill-rule:nonzero;stroke:none"
           id="path5443"
           /><path
           d="m 478.481,276.826 17.27,9.943 2.159,1.242 0.135,0.078 0.067,0.039 c 0.867,-1.437 -1.916,3.228 1.948,-3.218 l -0.017,-0.01 -0.033,-0.021 -0.265,-0.164 -0.529,-0.328 -1.059,-0.657 -4.232,-2.626 -8.466,-5.254 -33.863,-21.014 c 1.465,0.779 13.68,8.186 -4.713,-3.399 l 36.22,22.713 9.054,5.678 4.528,2.84 2.263,1.42 1.132,0.709 0.036,0.022 c -4.085,6.812 -1.142,1.883 -2.059,3.401 l -0.018,-0.011 -0.072,-0.042 -0.145,-0.084 -0.288,-0.168 -0.577,-0.336 z"
           style="fill:#ed1c24;fill-opacity:1;fill-rule:nonzero;stroke:none"
           id="path5445"
           /><path
           d="m 444.662,257.145 33.819,19.681 -25.657,-14.771 z"
           style="fill:#ed1c24;fill-opacity:1;fill-rule:nonzero;stroke:none"
           id="path5447"
           /><path
           d="m 411.004,237.188 c 14.678,9.036 30.062,18.453 46.32,28.377 8.128,4.962 16.475,10.052 25.06,15.285 4.293,2.616 8.645,5.267 13.059,7.957 l 6.669,4.063 1.683,1.025 0.843,0.513 0.422,0.257 c 0.544,-0.878 -4.594,7.734 -2.434,4.08 l -0.026,-0.016 -0.054,-0.031 -0.108,-0.061 -0.213,-0.124 -3.441,-1.99 3.706,2.131 0.115,0.067 0.03,0.016 c -2.141,3.642 2.955,-4.939 2.414,-4.065 l -0.057,-0.034 -0.229,-0.139 -0.457,-0.277 -0.916,-0.555 -1.833,-1.111 -7.348,-4.452 -14.757,-8.946 -29.615,-17.967 C 430.104,249.214 410.464,237.28 391.36,225.66 c -5.414,-3.449 -22.091,-13.877 19.644,11.528"
           style="fill:#ed1c24;fill-opacity:1;fill-rule:nonzero;stroke:none"
           id="path5449"
           /><path
           d="m 266.253,149.279 c 1.941,1.194 4.591,2.812 6.532,4.003 -4.087,-2.443 -7.277,-4.37 -6.532,-4.003"
           style="fill:#ed1c24;fill-opacity:1;fill-rule:nonzero;stroke:none"
           id="path5451"
           /><path
           d="m 378.55,225.277 c -2.047,-1.217 -3.832,-2.266 -5.791,-3.427 -0.518,-0.345 -0.771,-0.528 -1.376,-0.925 z"
           style="fill:#ed1c24;fill-opacity:1;fill-rule:nonzero;stroke:none"
           id="path5453"
           /><path
           d="M 384.774,221.748 C 355.369,203.957 338,193.271 321.354,182.991 c 21.911,13.378 45.068,27.496 70.006,42.669 2.357,1.504 2.779,1.808 -6.586,-3.912"
           style="fill:#ed1c24;fill-opacity:1;fill-rule:nonzero;stroke:none"
           id="path5455"
           /><path
           d="m 378.439,227.541 c 15.465,8.824 32.984,18.853 51.486,29.455 -15.218,-8.632 -46.162,-26.254 -51.486,-29.455"
           style="fill:#ed1c24;fill-opacity:1;fill-rule:nonzero;stroke:none"
           id="path5457"
           /><path
           d="m 282.664,159.152 c -1.5,-0.92 -2.735,-1.679 -4.324,-2.652 9.599,5.732 8.338,5.017 4.324,2.652"
           style="fill:#ed1c24;fill-opacity:1;fill-rule:nonzero;stroke:none"
           id="path5459"
           /><path
           d="m 282.664,159.152 c 15.091,9.252 26.887,16.551 38.69,23.839 -17.847,-10.896 -34.274,-20.94 -48.569,-29.709 3.553,2.126 7.293,4.345 9.879,5.87"
           style="fill:#ed1c24;fill-opacity:1;fill-rule:nonzero;stroke:none"
           id="path5461"
           /><path
           d="m 485.477,293.5 c -4.924,-3.458 -81.687,-50.558 -148.423,-90.636 -65.212,-39.995 -21.812,-15.135 35.705,18.986 1.856,1.329 1.774,1.465 69.053,42.644 -23.73,-14.174 -149.658,-90.398 -93.059,-55.566 89.054,54.382 73.135,44.3 116.584,70.473 -18.57,-11.003 9.708,6.4 40.148,25.151 l 2.859,1.761 1.431,0.882 c -0.051,0.543 1.13,-0.591 0.064,1.328 l -0.726,-0.424 -5.786,-3.387 c -3.837,-2.247 -7.62,-4.463 -11.261,-6.599 -7.281,-4.269 -13.991,-8.214 -19.423,-11.425 -10.865,-6.424 -16.617,-9.918 -11.595,-7.229 l 39.56,22.988 c 2.996,1.807 7.266,4.074 9.216,5.504 l -9.757,-5.97 -19.514,-11.939 c -1.475,-0.764 26.737,16.599 4.924,3.458"
           style="fill:#ed1c24;fill-opacity:1;fill-rule:nonzero;stroke:none"
           id="path5463"
           /><path
           d="m 271.853,165.37 28.125,16.296 c -8.033,-4.618 -15.491,-8.897 -22.821,-13.096 l -10.957,-6.269 -5.512,-3.15 -2.783,-1.588 -0.699,-0.4 -0.351,-0.199 -0.043,-0.026 c 5.039,-8.513 1.409,-2.352 2.539,-4.249 l 0.022,0.013 0.086,0.052 0.173,0.104 1.389,0.835 c 14.85,8.926 30.964,18.587 51.875,31.12 45.894,28.13 55.371,34.063 58.487,36.112 l -68.166,-41.412 -34.084,-20.706 -8.521,-5.177 -1.065,-0.648 -0.266,-0.161 c -1.062,1.783 2.331,-4.018 -2.39,3.991 l 0.033,0.019 0.068,0.039 0.134,0.078 0.541,0.312 2.158,1.245 4.319,2.491 17.272,9.964 z"
           style="fill:#ed1c24;fill-opacity:1;fill-rule:nonzero;stroke:none"
           id="path5465"
           /><path
           d="m 426.021,254.44 c -21.748,-13.054 -89.072,-52.135 -47.51,-28.679 82.282,47.54 57.552,33.645 106.587,62.171 -132.805,-76.8 38.07,22.256 -58.066,-32.966 26.051,15.126 49.528,28.706 71.752,41.557 -23.963,-13.774 -47.035,-27.019 -68.859,-39.527 1.171,0.663 2.07,1.175 3.062,1.735 l 0.626,0.364 c 0.002,-0.002 -0.176,-0.107 -0.176,-0.108 5.765,3.265 7.753,4.374 1.194,0.623 -0.446,-0.262 -2.059,-1.196 -2.775,-1.612 -0.867,-0.569 -3.26,-2.012 -5.835,-3.557 -38.593,-22.178 -6.153,-3.42 5.835,3.557 0.527,0.33 1.503,0.916 1.581,0.989 -0.09,-0.05 -0.27,-0.153 -0.45,-0.256 L 299.978,181.666 c 28.178,16.2 63.494,36.604 126.043,72.774"
           style="fill:#ed1c24;fill-opacity:1;fill-rule:nonzero;stroke:none"
           id="path5467"
           /><path
           d="m 389.72,218.293 c 4.064,2.482 3.904,2.348 4.272,2.54 8.409,5.295 11.555,7.295 -4.272,-2.54"
           style="fill:#ed1c24;fill-opacity:1;fill-rule:nonzero;stroke:none"
           id="path5469"
           /><path
           d="m 443.559,251.487 c -9.461,-5.956 -17.28,-11.025 -48.153,-30.183 -26.787,-16.517 0.067,0.284 -1.414,-0.471 -18.573,-11.69 -64.963,-40.788 -6.582,-4.705 l 9.286,5.846 c 26.318,16.29 56.423,34.821 78.81,48.563 5.597,3.435 10.711,6.571 15.163,9.298 2.227,1.363 4.287,2.625 6.159,3.769 0.937,0.573 1.825,1.117 2.665,1.629 l 0.157,0.096 0.078,0.048 0.019,0.012 c 1.211,-2.003 -1.623,2.744 -1.342,2.249 l -0.04,-0.023 -0.313,-0.177 -0.614,-0.348 -1.167,-0.66 c -6.011,-3.401 -8.588,-4.837 -6.265,-3.478 l 5.911,3.25 1.482,0.818 0.746,0.41 0.186,0.103 0.094,0.051 0.012,0.007 c -0.274,0.472 2.441,-4.07 1.286,-2.152 l -0.024,-0.013 -0.046,-0.028 -0.367,-0.218 -2.977,-1.776 c -4.024,-2.402 -8.295,-4.963 -13.178,-7.904 -9.766,-5.882 -21.982,-13.29 -39.572,-24.013"
           style="fill:#ed1c24;fill-opacity:1;fill-rule:nonzero;stroke:none"
           id="path5471"
           /><path
           d="m 281.352,159.914 109.293,66.725 -56.001,-33.626 3.036,1.582 C 275.371,156.8 288.957,164.741 281.352,159.914"
           style="fill:#ed1c24;fill-opacity:1;fill-rule:nonzero;stroke:none"
           id="path5473"
           /><path
           d="m 391.132,232.678 -14.27,-9.209 62.821,38.946 z"
           style="fill:#ed1c24;fill-opacity:1;fill-rule:nonzero;stroke:none"
           id="path5475"
           /><path
           d="m 486.74,297.482 5.182,3.448 -37.892,-22.152 z"
           style="fill:#ed1c24;fill-opacity:1;fill-rule:nonzero;stroke:none"
           id="path5477"
           /><path
           d="m 436.062,391.645 16.04,9.882 8.02,4.941 0.125,0.077 0.031,0.019 0.008,0.005 c 1.123,-1.885 -2.502,4.226 2.52,-4.225 l -0.016,-0.009 -0.063,-0.037 -0.255,-0.148 -0.509,-0.296 -1.018,-0.592 -2.036,-1.183 -4.072,-2.368 c 1.926,1.117 3.764,2.184 5.521,3.204 l 1.303,0.756 0.641,0.371 0.317,0.185 0.157,0.091 0.021,0.012 0.01,0.005 c 0.553,-0.919 -4.772,8.036 -2.523,4.242 l -0.039,-0.024 -0.077,-0.048 -2.423,-1.49 c -3.154,-1.941 -6.014,-3.702 -8.624,-5.31 -5.222,-3.218 -9.45,-5.828 -13.059,-8.06"
           style="fill:#ed1c24;fill-opacity:1;fill-rule:nonzero;stroke:none"
           id="path5479"
           /><path
           d="m 203.74,249.508 -5.549,-3.625 c 10.628,6.63 15.09,9.453 5.549,3.625"
           style="fill:#ed1c24;fill-opacity:1;fill-rule:nonzero;stroke:none"
           id="path5481"
           /><path
           d="m 208.081,189.164 -4.478,-2.545 -1.124,-0.638 -0.281,-0.16 -0.07,-0.039 -0.035,-0.02 c 5.151,-8.741 1.448,-2.411 2.606,-4.357 l 0.139,0.083 0.556,0.33 2.226,1.324 8.911,5.296 c 5.933,3.525 11.827,7.027 17.559,10.431 11.463,6.809 22.274,13.232 31.43,18.684 18.31,10.904 30.001,17.928 27.05,16.407 l -14.578,-8.3 c -16.372,-9.934 -30.833,-18.679 -43.877,-26.542 -6.521,-3.93 -12.689,-7.641 -18.563,-11.172 -2.937,-1.764 -5.802,-3.483 -8.6,-5.162 l -2.087,-1.252 -0.129,-0.077 -0.065,-0.039 c -1.144,1.93 2.538,-4.334 -2.569,4.324 l 0.016,0.01 0.033,0.019 0.262,0.15 0.523,0.299 1.04,0.595 z"
           style="fill:#ed1c24;fill-opacity:1;fill-rule:nonzero;stroke:none"
           id="path5483"
           /><path
           d="m 177.509,201.632 c -0.193,-0.228 -0.745,-0.196 -0.645,-0.64 l 0.853,0.484 1.722,0.975 3.49,1.978 7.049,3.993 c 11.49,6.805 22.179,13.135 31.797,18.836 -6.881,-4.024 -14.209,-8.308 -21.873,-12.787 -3.832,-2.24 -7.748,-4.528 -11.733,-6.857 l -6.029,-3.523 -3.051,-1.783 -1.533,-0.896 c -0.272,-0.06 -0.477,-0.499 -0.805,-0.25 z"
           style="fill:#ed1c24;fill-opacity:1;fill-rule:nonzero;stroke:none"
           id="path5485"
           /><path
           d="m 209.583,223.389 61.756,37.51 c -13.997,-8.461 -33.818,-20.497 -61.756,-37.51"
           style="fill:#ed1c24;fill-opacity:1;fill-rule:nonzero;stroke:none"
           id="path5487"
           /><path
           d="M 433.753,404.797 395.962,382.47 c 59.526,34.368 33.238,19.447 37.791,22.327"
           style="fill:#ed1c24;fill-opacity:1;fill-rule:nonzero;stroke:none"
           id="path5489"
           /><path
           d="m 412.477,270.324 c 20.25,12.125 38.448,23.04 55.13,33.062 8.341,5.011 16.303,9.799 23.954,14.403 3.825,2.301 7.571,4.557 11.249,6.772 l 0.688,0.415 0.344,0.207 0.172,0.103 0.043,0.026 0.021,0.013 c -1.187,2.021 2.688,-4.507 -2.657,4.535 l -0.086,-0.05 -1.386,-0.798 -2.751,-1.585 -5.428,-3.129 c 3.095,1.769 6.153,3.516 9.169,5.239 l 0.283,0.161 0.141,0.081 0.071,0.04 c -0.55,0.981 4.976,-8.436 2.618,-4.461 l -0.035,-0.021 -0.558,-0.333 -1.112,-0.664 -2.213,-1.322 -4.378,-2.613 c -5.791,-3.457 -11.402,-6.804 -16.796,-10.024 -10.79,-6.438 -20.719,-12.362 -29.513,-17.624 -17.588,-10.525 -30.638,-18.4 -36.97,-22.433"
           style="fill:#ed1c24;fill-opacity:1;fill-rule:nonzero;stroke:none"
           id="path5491"
           /><path
           d="m 347.078,331.793 c 19.649,12.117 27.902,17.272 27.322,17.03 -20.18,-12.437 -31.527,-19.478 -27.322,-17.03"
           style="fill:#ed1c24;fill-opacity:1;fill-rule:nonzero;stroke:none"
           id="path5493"
           /><path
           d="m 373.523,256.029 c 7.285,4.155 14.289,8.172 21.658,12.385 29.906,17.35 59.999,34.791 96.589,55.884 -36.49,-20.853 -78.324,-44.872 -118.247,-68.269"
           style="fill:#ed1c24;fill-opacity:1;fill-rule:nonzero;stroke:none"
           id="path5495"
           /><path
           d="m 157.513,352.661 c 3.335,2.086 7.277,4.568 10.352,6.484 0.931,0.658 -3.62,-2.216 -10.352,-6.484"
           style="fill:#ed1c24;fill-opacity:1;fill-rule:nonzero;stroke:none"
           id="path5497"
           /><path
           d="m 126.232,369.796 c -1.594,-1.085 -3.316,-2.256 -5.149,-3.502 l -2.83,-1.923 -0.732,-0.497 -0.184,-0.125 c 1.812,-2.903 -2.483,3.944 -2.034,3.243 l 0.011,0.007 0.025,0.014 0.048,0.028 0.097,0.056 0.389,0.225 1.578,0.913 c 4.258,2.463 8.899,5.145 13.767,7.958 9.736,5.626 20.38,11.774 30.688,17.729 -5.028,-2.885 -11.777,-6.775 -20.885,-12.039 -4.554,-2.632 -9.698,-5.608 -15.511,-8.973 -2.906,-1.683 -5.981,-3.464 -9.232,-5.347 l -0.611,-0.355 -0.308,-0.178 -0.038,-0.022 -0.02,-0.011 c -0.455,0.7 3.862,-6.158 2.045,-3.248 l 0.073,0.05 0.148,0.1 1.189,0.809 2.426,1.651 c 1.639,1.116 3.322,2.261 5.05,3.437"
           style="fill:#ed1c24;fill-opacity:1;fill-rule:nonzero;stroke:none"
           id="path5499"
           /><path
           d="m 424.143,268.556 c 30.645,17.726 4.816,2.838 0,0"
           style="fill:#ed1c24;fill-opacity:1;fill-rule:nonzero;stroke:none"
           id="path5501"
           /><path
           d="m 433.656,267.831 c 6.354,3.898 11.194,6.898 11.939,7.464 -2.426,-1.589 -6.644,-4.216 -11.939,-7.464"
           style="fill:#ed1c24;fill-opacity:1;fill-rule:nonzero;stroke:none"
           id="path5503"
           /><path
           d="m 397.938,273.063 c 0.882,0.541 1.589,0.973 2.56,1.569 -8.955,-5.397 -7.447,-4.489 -2.56,-1.569"
           style="fill:#ed1c24;fill-opacity:1;fill-rule:nonzero;stroke:none"
           id="path5505"
           /><path
           d="m 470.32,294.989 c -11.501,-6.579 -24.792,-14.201 -39.15,-22.456 6.291,3.595 18.145,10.391 39.15,22.456"
           style="fill:#ed1c24;fill-opacity:1;fill-rule:nonzero;stroke:none"
           id="path5507"
           /><path
           d="m 463.942,291.544 c 10.588,6.091 18.841,10.844 26.737,15.388 3.908,2.339 0.479,0.411 -26.737,-15.388"
           style="fill:#ed1c24;fill-opacity:1;fill-rule:nonzero;stroke:none"
           id="path5509"
           /><path
           d="m 381.66,244.004 c 17.39,10.045 33.716,19.447 49.51,28.529 -6.111,-3.493 -8.634,-4.922 -7.027,-3.977 -8.961,-5.182 -21.508,-12.436 -42.483,-24.552"
           style="fill:#ed1c24;fill-opacity:1;fill-rule:nonzero;stroke:none"
           id="path5511"
           /><path
           d="m 185.817,296.962 c -1.979,-1.127 -4.315,-2.465 -6.475,-3.691 -30.749,-17.961 -17.317,-10.172 6.475,3.691"
           style="fill:#ed1c24;fill-opacity:1;fill-rule:nonzero;stroke:none"
           id="path5513"
           /><path
           d="m 409.309,319.121 c -1.413,-0.865 -2.203,-1.359 -3.436,-2.12 1.415,0.86 3.187,1.933 4.427,2.683 z"
           style="fill:#ed1c24;fill-opacity:1;fill-rule:nonzero;stroke:none"
           id="path5515"
           /><path
           d="m 490.753,364.131 c 2.908,1.718 5.738,3.388 8.497,5.015 l 4.086,2.407 1.006,0.593 0.5,0.294 0.25,0.147 0.125,0.073 0.061,0.037 c -0.986,1.677 2.252,-3.728 -2.203,3.764 l -0.03,-0.019 -1.952,-1.212 c -5.174,-3.211 -10.097,-6.259 -14.823,-9.18 -9.454,-5.84 -18.124,-11.17 -26.457,-16.269 -16.666,-10.199 -31.981,-19.48 -49.513,-30.097 l 36.54,20.802 35.292,22.452 17.646,11.225 2.206,1.403 1.103,0.702 0.069,0.044 c -1.831,3.094 2.517,-4.201 2.06,-3.456 l -0.018,-0.01 -0.035,-0.021 -0.14,-0.085 -0.28,-0.169 -0.559,-0.337 -4.477,-2.701 z"
           style="fill:#ed1c24;fill-opacity:1;fill-rule:nonzero;stroke:none"
           id="path5517"
           /><path
           d="m 224.376,332.038 -20.234,-11.536 c -12.57,-7.419 -25.238,-14.877 20.234,11.536 m 115.37,-114.314 c -25.947,-15.906 -48.874,-30.004 -55.866,-34.443 -4.357,-2.597 -5.098,-2.974 5.098,3.369 30.371,18.789 43.469,26.737 50.768,31.074 m 53.401,32.718 c -0.789,-0.496 -1.403,-0.88 -2.369,-1.483 34.092,20.841 51.417,31.4 2.369,1.483 m -118.284,6.187 c 28.957,16.509 54.727,31.294 71.232,41.007 -26.419,-15.11 -50.274,-28.863 -71.232,-41.007 M 391.934,351.3 c 16.459,9.173 60.857,35.167 83.129,48.143 -38.09,-21.808 -57.945,-32.965 -83.129,-48.143 M 288.593,312.064 c 49.964,30.205 98.302,59.794 140.882,86.001 5.323,3.276 10.555,6.499 15.689,9.664 l 7.628,4.703 3.757,2.317 1.863,1.15 0.465,0.287 0.058,0.035 c 5.023,-8.404 1.358,-2.349 2.464,-4.234 l -0.118,-0.069 -0.235,-0.137 -0.94,-0.548 c -10.009,-5.836 -19.589,-11.429 -28.672,-16.736 -18.167,-10.614 -34.349,-20.085 -48.021,-28.081 -38.646,-22.086 29.971,18.481 -80.095,-45.325 -155.407,-90.029 29.991,16.17 -63.344,-37.9 l -68.036,-38.468 c -7.44,-4.335 -14.765,-8.598 -21.984,-12.796 l -5.394,-3.136 -2.683,-1.56 -1.337,-0.777 -0.167,-0.097 c 2.419,-4.169 -3.406,5.617 -2.76,4.636 l 0.082,0.051 0.329,0.201 0.659,0.402 10.458,6.391 c 13.848,8.458 27.317,16.671 40.486,24.69 26.339,16.037 51.478,31.296 76.05,46.188 49.144,29.784 96.018,58.096 145.672,88.212 11.22,6.85 19.587,11.971 25.827,15.804 1.56,0.958 2.988,1.835 4.294,2.639 l 0.957,0.59 0.029,0.018 0.008,0.004 c -2.43,4.11 3.319,-5.593 2.723,-4.596 l -0.015,-0.008 -0.059,-0.035 -0.117,-0.068 -0.233,-0.137 -0.456,-0.267 -1.72,-1.009 c -2.179,-1.279 -3.911,-2.301 -5.292,-3.12 -53.641,-30.794 -109.652,-63.33 -162.376,-93.979 -26.361,-15.324 -51.901,-30.177 -75.912,-44.104 -12.005,-6.964 -23.628,-13.695 -34.78,-20.139 -5.576,-3.222 -11.035,-6.372 -16.364,-9.443 l -7.897,-4.546 -3.873,-2.226 -1.917,-1.102 -0.12,-0.068 -0.059,-0.035 c -1.476,2.453 3.219,-5.538 -3.325,5.49 l 0.236,0.144 0.469,0.284 0.937,0.569 c -18.571,-11.497 45.656,27.327 55.29,33.004 l 143.472,88.016 c -63.534,-38.967 -60.496,-37.587 -71.957,-45.038 44.873,27.418 65.968,40.544 96.431,59.185 -18.573,-11.496 -37.321,-23.101 -13.454,-8.755 l 75.166,46.237 9.395,5.78 4.698,2.889 2.349,1.445 0.294,0.181 0.147,0.09 c -2.083,3.549 2.885,-4.804 2.352,-3.956 l -0.037,-0.021 -0.074,-0.044 -0.596,-0.347 -1.191,-0.694 -19.065,-11.103 -38.129,-22.207 c 8.998,5.117 26.673,15.291 41.384,23.764 -38.188,-22.052 -120.807,-70.046 -175.567,-101.281 4.763,2.929 23.427,13.872 28.009,16.702 46.123,26.113 72.022,41.503 95.717,55.533 C 261.556,316.24 340.54,362.04 289.656,332.993 215.255,290.02 185.042,271.958 204.755,282.948 183.714,270.844 166.259,260.808 150.578,251.783 l -5.801,-3.339 -2.845,-1.637 -0.353,-0.203 -0.176,-0.102 -0.089,-0.051 -0.043,-0.025 c 2.075,-3.539 -2.885,4.788 -2.35,3.944 l 0.697,0.417 1.388,0.829 c 3.692,2.207 7.302,4.365 10.859,6.492 7.113,4.255 14.011,8.385 20.92,12.526 27.635,16.565 55.434,33.31 97.774,58.917 l -15.79,-10.101 77.963,46.917 -62.879,-38.457 c 74.997,44.719 81.757,49.045 90.589,54.62 4.416,2.788 9.351,5.888 23.591,14.508 7.12,4.309 16.567,9.998 29.439,17.717 3.217,1.93 6.649,3.986 10.313,6.18 1.831,1.097 3.721,2.228 5.67,3.395 l 1.474,0.881 0.745,0.446 0.186,0.113 c -1.933,3.394 2.759,-4.551 2.223,-3.763 l -0.095,-0.055 -0.38,-0.219 -3.089,-1.781 c -8.366,-4.821 -17.734,-10.214 -28.244,-16.26 l -0.599,0.211 c -64.633,-37.53 -86.369,-51.019 -136.863,-79.503 -62.607,-36.484 107.65,61.365 -39.772,-23.862 -13.016,-7.372 -33.532,-19.093 -56.101,-32.02 -11.284,-6.464 -23.081,-13.23 -34.711,-19.905 l -4.352,-2.498 -0.542,-0.31 -0.271,-0.157 -0.135,-0.077 -0.068,-0.039 c 2.21,-3.685 -3.056,4.995 -2.495,4.113 l 0.033,0.02 1.059,0.662 2.113,1.32 8.363,5.229 c 5.52,3.452 10.916,6.827 16.105,10.074 22.948,14.553 14.107,9.165 -4.147,-2.181 -4.563,-2.836 -9.715,-6.045 -15.106,-9.409 -2.695,-1.68 -5.45,-3.401 -8.221,-5.131 l -0.26,-0.164 -0.13,-0.081 c 1.281,-2.138 -2.913,4.759 2.864,-4.799 l 0.033,0.018 0.066,0.038 0.532,0.306 1.064,0.611 2.13,1.223 4.249,2.439 c 11.288,6.487 22.123,12.732 29.646,17.094 -6.95,-4.021 -13.601,-7.867 -19.971,-11.549 -3.185,-1.84 -6.301,-3.639 -9.348,-5.399 l -4.519,-2.611 -2.222,-1.283 -1.102,-0.635 -0.275,-0.16 -0.137,-0.079 c -1.347,2.164 2.822,-4.954 -3.055,4.831 l 0.535,0.336 c 11.393,7.159 21.758,13.663 31.236,19.604 18.955,11.88 34.362,21.501 47.341,29.579 25.958,16.156 42.206,26.14 57.722,35.678 7.758,4.769 15.333,9.427 23.847,14.69 4.257,2.63 8.749,5.413 13.615,8.436 2.433,1.511 4.961,3.083 7.598,4.726 l 2,1.246 0.507,0.315 0.255,0.159 0.127,0.079 0.064,0.04 c 3.629,-6.057 0.968,-1.7 1.762,-3.062 l -1.051,-0.601 -4.319,-2.475 c -23.55,-13.501 -55.536,-31.97 -105.145,-60.795 68.306,39.037 -56.37,-33.623 104.72,59.4 -38.387,-22.328 -76.329,-44.032 -114.658,-65.994 -19.165,-10.982 -38.427,-22.028 -57.891,-33.248 l -3.651,-2.107 -0.914,-0.527 -0.457,-0.264 -0.115,-0.065 c 2.185,-3.714 -3.051,5.015 -2.48,4.135 l 0.056,0.035 0.224,0.139 1.793,1.116 7.183,4.477 14.429,9.013 c 9.65,6.037 19.361,12.134 29.146,18.304 l -50.816,-32.37 c 28.301,17.611 59.992,37.61 75.33,47.249 l -6.164,-4.397 c 24.186,15.307 47.589,29.975 69.982,43.942 5.599,3.492 11.133,6.94 16.602,10.344 l 8.152,5.071 4.038,2.511 2.009,1.249 1.002,0.622 0.25,0.156 0.125,0.078 c 0.954,-1.575 -2.047,3.578 2.155,-3.52 l -0.063,-0.036 -0.511,-0.294 c -10.878,-6.267 -21.469,-12.36 -31.745,-18.274 -41.103,-23.654 -77.159,-44.431 -106.336,-61.906 20.27,12.198 1.809,1.526 -26.672,-15.008 -3.56,-2.066 -7.276,-4.224 -11.093,-6.441 l -2.881,-1.673 -0.363,-0.21 -0.181,-0.105 -0.045,-0.027 c 1.987,-3.315 -2.767,4.482 -2.253,3.695 l 0.089,0.055 0.71,0.452 1.426,0.904 5.763,3.657 c 7.736,4.909 15.646,9.925 23.292,14.765 15.291,9.68 29.524,18.657 39.198,24.664 -19.834,-12.697 -44.026,-28.055 -69.317,-44.063 l -0.592,-0.376 -0.297,-0.187 -0.148,-0.094 c 3.96,-6.522 1.141,-1.783 2.045,-3.227 l 0.075,0.043 1.217,0.706 2.438,1.411 4.89,2.83 9.825,5.684 19.693,11.386 c 13.095,7.568 26.054,15.055 38.459,22.222 49.622,28.672 90.391,52.259 95.616,55.734 -38.131,-21.738 -71.824,-41.639 -108.696,-62.658 25.58,14.905 62.769,36.618 72.461,42.398 -31.388,-17.992 -59.361,-34.111 -84.851,-48.859 -12.745,-7.374 -24.869,-14.404 -36.49,-21.155 l -8.623,-5.012 -4.244,-2.468 -2.106,-1.225 -0.262,-0.153 c -1.756,2.883 -0.45,0.823 -0.825,1.477 l 0.064,0.041 0.128,0.081 0.512,0.325 1.021,0.65 c 5.441,3.46 10.773,6.854 16.01,10.189 41.9,26.685 77.749,49.647 114.854,73.188 L 122.431,263.518 c 10.257,7.41 59.016,37.409 95.451,61.14 16.449,10.256 31.97,20.004 46.839,29.381 7.434,4.689 14.705,9.284 21.846,13.805 l 2.673,1.691 1.331,0.843 0.665,0.421 0.083,0.053 c -1.793,2.993 2.497,-4.043 2.032,-3.332 l -0.043,-0.025 -0.17,-0.099 -0.34,-0.196 -5.415,-3.139 -10.705,-6.208 c -28.34,-16.44 -55.122,-32.005 -82.575,-47.704 14.525,8.38 15.472,9.018 29.998,17.398 -36.575,-21.122 -66.589,-38.361 -91.949,-52.865 -3.17,-1.814 -6.268,-3.584 -9.296,-5.314 l -2.258,-1.29 -1.119,-0.639 -0.279,-0.159 -0.14,-0.08 c -0.804,1.274 1.701,-2.905 -1.82,2.844 l 0.068,0.043 0.54,0.344 4.268,2.709 c 5.626,3.57 10.999,6.975 16.147,10.235 10.295,6.519 19.691,12.454 28.419,17.96 34.912,22.024 59.133,37.181 87.452,55.344 6.944,4.442 14.658,9.388 22.769,14.596 l 6.151,3.953 3.12,2.005 c 0.703,-0.226 0.639,1.931 1.975,-0.252 l -1.62,-0.937 -13.097,-7.583 c -17.547,-10.167 -35.175,-20.407 -49.787,-28.922 -29.224,-17.031 -46.386,-27.16 -26.714,-15.996 -23.388,-13.63 25.172,14.474 69.188,39.837 5.502,3.171 10.933,6.299 16.144,9.297 l 3.864,2.222 1.897,1.091 0.47,0.271 0.117,0.067 0.059,0.034 c -2.969,4.934 -0.856,1.346 -1.533,2.439 l -0.228,-0.146 -0.906,-0.579 c -2.406,-1.538 -4.741,-3.029 -6.986,-4.462 -8.982,-5.733 -16.526,-10.53 -21.473,-13.643 -9.892,-6.224 -9.393,-5.709 10.789,7.549 l 15.4,9.659 1.937,1.219 0.97,0.611 0.242,0.153 0.061,0.038 c 3.897,-6.433 1.044,-1.804 1.898,-3.248 l -0.125,-0.071 -0.499,-0.283 -4.002,-2.271 -8.059,-4.584 c -10.8,-6.154 -21.829,-12.479 -33.269,-19.068 -22.88,-13.178 -47.398,-27.412 -74.993,-43.435 -13.797,-8.011 -28.364,-16.469 -43.878,-25.468 -3.879,-2.249 -7.817,-4.532 -11.817,-6.85 l -0.188,-0.109 c 0.371,-0.752 -3.737,6.253 -1.947,3.32 l 0.092,0.058 0.366,0.233 0.734,0.467 1.471,0.936 2.96,1.883 5.989,3.809 c 8.05,5.118 16.352,10.392 24.929,15.836 34.311,21.775 73.024,46.259 117.546,74.245 -77.586,-49.685 45.995,28.369 -23.165,-15.853 10.561,6.71 19.85,12.614 28.093,17.857 4.122,2.622 7.982,5.078 11.609,7.387 1.813,1.154 3.568,2.272 5.269,3.355 l 2.509,1.598 0.615,0.392 0.306,0.195 0.152,0.097 c -0.769,1.284 1.099,-1.717 0.885,-1.421 l -0.039,-0.022 -0.078,-0.046 -1.236,-0.717 C 275.99,379.829 266.27,374.169 258.053,369.368 241.618,359.766 231.193,353.6 211.913,342.274 L 185.64,327.533 c -28.247,-16.549 -44.012,-25.824 -54.448,-31.981 -2.609,-1.539 -4.884,-2.884 -6.939,-4.099 -1.027,-0.607 -1.999,-1.182 -2.93,-1.732 l -1.366,-0.809 -0.334,-0.197 -0.165,-0.098 -0.083,-0.049 c -3.35,5.456 -0.917,1.52 -1.659,2.742 l 0.02,0.013 0.039,0.027 0.632,0.417 c 3.343,2.208 6.26,4.134 9.62,6.342 13.441,8.835 33.965,22.183 117.083,76.085 -55.684,-36.278 67.176,42.714 24.786,15.046 l 4.32,2.785 2.157,1.391 0.269,0.173 c 0.642,-1.037 -1.391,2.353 1.449,-2.319 l -0.035,-0.02 -0.07,-0.041 -0.138,-0.08 -0.556,-0.32 -1.109,-0.641 -8.853,-5.11 c -5.885,-3.399 -11.73,-6.778 -17.517,-10.125 -11.574,-6.694 -22.91,-13.261 -33.846,-19.604 -21.87,-12.688 -42.133,-24.484 -59.469,-34.621 l 6.249,3.668 c -10.853,-6.279 -20.906,-12.093 -30.255,-17.498 -4.674,-2.702 -9.173,-5.301 -13.508,-7.806 -2.167,-1.252 -4.293,-2.48 -6.38,-3.685 l -1.558,-0.901 -0.387,-0.223 c -3.366,5.732 -0.878,1.623 -1.605,2.917 l 0.095,0.058 0.19,0.116 0.759,0.464 2.997,1.834 c 15.833,9.689 29.274,17.902 41.078,25.107 23.61,14.411 40.676,24.792 57.262,34.887 16.585,10.094 32.69,19.903 54.375,33.169 l 4.133,2.529 2.118,1.297 1.073,0.656 0.539,0.331 0.271,0.165 0.136,0.083 c 0.672,-1.089 -1.41,2.498 1.524,-2.432 l -0.069,-0.04 c -2.941,-1.699 -5.982,-3.457 -9.137,-5.281 -6.308,-3.648 -13.067,-7.559 -20.373,-11.79 -14.611,-8.46 -31.408,-18.199 -51.161,-29.663 l 15.89,8.916 c -25.87,-15.023 -52.605,-30.527 -80.001,-46.4 l -10.305,-5.969 -5.174,-2.997 -1.296,-0.751 -0.648,-0.375 -0.163,-0.094 c 0.352,-0.807 -3.935,6.511 -2.031,3.468 l 0.318,0.198 2.55,1.581 20.525,12.721 c 13.754,8.523 27.646,17.129 41.652,25.802 28.011,17.346 56.475,34.96 85.194,52.727 l 10.78,6.669 2.699,1.669 0.675,0.417 c -1.893,3.344 2.801,-4.419 2.222,-3.675 l -0.171,-0.099 -0.344,-0.198 -1.375,-0.795 -5.502,-3.178 -22.053,-12.74 -44.267,-25.566 c -29.558,-17.068 -59.172,-34.167 -88.644,-51.184 l -5.524,-3.19 -2.761,-1.594 -1.38,-0.797 -0.69,-0.398 -0.345,-0.199 c 0.38,-0.871 -4.24,7.04 -2.191,3.751 l 0.167,0.108 10.691,6.922 21.325,13.809 c 14.189,9.188 28.319,18.339 42.366,27.437 14.046,9.097 28.009,18.142 41.864,27.118 l 20.698,13.412 10.283,6.664 5.123,3.321 2.558,1.657 0.639,0.414 c 1.06,-1.66 -2.149,3.863 2.417,-3.696 l -0.164,-0.096 -0.33,-0.19 -1.317,-0.762 C 230.731,386.27 203.185,370.337 176.387,354.825 l 75.664,43.475 c -11.504,-6.576 -47.61,-27.524 -89.21,-51.611 -10.401,-6.022 -21.144,-12.24 -31.933,-18.478 l -16.179,-9.351 -8.044,-4.646 -3.999,-2.309 -0.997,-0.575 -0.498,-0.287 c 2.378,-4.005 -3.32,5.408 -2.699,4.459 l 0.06,0.039 0.122,0.077 0.243,0.153 1.938,1.225 c 20.652,13.048 40.315,25.436 56.658,35.665 -13.026,-8.26 -35.46,-22.561 -47.725,-30.28 1.971,0.95 27.544,16.677 77.976,48.487 l 19.134,12.547 20.545,12.638 c 38.326,24.226 32.609,20.774 26.903,17.329 -2.853,-1.722 -5.703,-3.444 -3.044,-1.702 1.329,0.871 4.036,2.608 8.809,5.642 l 1.888,1.199 0.124,0.08 0.031,0.02 c -2.129,3.538 2.943,-4.794 2.403,-3.947 l -0.064,-0.037 -0.26,-0.151 -0.528,-0.306 -1.098,-0.636 c -1.498,-0.868 -3.139,-1.818 -4.935,-2.857 -3.591,-2.079 -7.8,-4.51 -12.714,-7.347 -11.59,-6.375 -38.541,-21.766 -73.514,-41.866 -17.486,-10.05 -36.979,-21.277 -57.559,-33.142 l -3.872,-2.232 -1.945,-1.121 -0.243,-0.141 -0.122,-0.07 c 0.31,-0.698 -3.352,5.691 -1.735,3.028 l 0.478,0.297 0.957,0.594 7.708,4.782 c 5.167,3.206 10.386,6.445 15.643,9.708 10.516,6.527 21.185,13.151 31.896,19.802 21.423,13.3 43.014,26.706 63.873,39.65 5.215,3.236 10.384,6.443 15.493,9.612 l 7.617,4.724 3.772,2.339 0.235,0.146 0.117,0.073 c -1.504,2.608 2.204,-3.458 1.756,-2.872 l -0.479,-0.275 -0.955,-0.551 -1.906,-1.098 c -10.145,-5.846 -19.988,-11.515 -29.416,-16.94 -37.71,-21.699 -68.766,-39.49 -85.83,-49.064 -53.035,-31.533 148.782,85.77 90.601,51.349 -24.085,-13.767 -34.917,-19.85 -86.048,-49.298 l 17.898,9.786 c -14.874,-8.567 -29.172,-16.803 -42.962,-24.744 l -10.248,-5.901 -5.054,-2.911 -0.629,-0.361 -0.157,-0.091 c 0.382,-0.845 -4.167,6.86 -2.157,3.653 l 0.305,0.197 1.213,0.786 2.421,1.567 c 6.44,4.17 12.764,8.265 18.981,12.29 24.868,16.1 48.017,31.083 69.954,45.28 10.969,7.098 21.634,14 32.06,20.746 5.213,3.373 10.366,6.708 15.466,10.008 l 7.614,4.926 0.946,0.613 0.473,0.306 0.236,0.153 0.118,0.076 c 3.902,-6.398 1.012,-1.814 1.851,-3.26 l -1.948,-1.121 -3.884,-2.235 C 223.31,408.646 203.372,397.173 183.639,385.816 163.907,374.459 144.38,363.218 124.537,351.789 l -14.951,-8.612 -3.761,-2.167 -1.886,-1.086 -0.471,-0.272 -0.236,-0.136 c 0.303,-0.66 -3.271,5.376 -1.694,2.862 l 0.115,0.073 0.917,0.589 7.367,4.725 c 9.856,6.321 19.853,12.735 30.054,19.281 20.401,13.092 41.618,26.714 64.158,41.195 5.635,3.62 11.353,7.294 17.162,11.027 l 8.781,5.643 2.218,1.425 0.555,0.358 c 3.369,-5.452 0.852,-1.559 1.567,-2.797 l -0.143,-0.083 -0.287,-0.165 -1.147,-0.663 -4.611,-2.663 c -12.348,-7.132 -25.102,-14.501 -38.328,-22.144 l 8.466,5.005 c -18.872,-10.843 -35.561,-20.444 -50.503,-29.058 -7.47,-4.307 -14.504,-8.367 -21.156,-12.211 -3.327,-1.922 -6.556,-3.79 -9.698,-5.608 l -2.339,-1.355 -1.158,-0.67 -0.576,-0.333 c -2.995,4.914 -0.81,1.375 -1.47,2.478 l 0.035,0.022 0.07,0.045 0.139,0.09 0.278,0.181 4.38,2.844 c 23.037,14.963 40.983,26.721 57.211,37.465 15.243,9.598 -37.365,-24.573 -8.75,-6.294 16.007,10.537 32.038,21.028 47.99,31.42 l 5.978,3.893 2.986,1.942 1.492,0.971 0.186,0.121 c -1.496,2.53 2.161,-3.367 1.731,-2.792 l -0.096,-0.055 -0.385,-0.223 -0.769,-0.447 -12.284,-7.12 c -8.173,-4.733 -16.312,-9.436 -24.403,-14.103 -16.182,-9.335 -32.173,-18.529 -47.867,-27.533 l -11.713,-6.717 -5.812,-3.331 -2.894,-1.658 -1.444,-0.827 -0.361,-0.207 -0.09,-0.051 c -0.736,1.134 1.52,-2.611 -1.673,2.529 l 0.173,0.116 0.689,0.463 c 7.347,4.945 14.612,9.831 21.779,14.65 14.336,9.638 28.286,19.012 41.748,28.067 6.732,4.527 13.34,8.974 19.815,13.335 l 9.609,6.475 0.593,0.401 0.149,0.099 c 2.326,-3.72 0.6,-1.056 1.099,-1.899 l -0.077,-0.044 -0.31,-0.178 -1.238,-0.71 -2.465,-1.415 -4.886,-2.808 c -25.91,-14.891 -49.356,-28.459 -69.489,-40.327 1.263,0.868 -0.35,0.074 -3.999,-1.897 -1.824,-0.984 -4.157,-2.264 -6.895,-3.776 -1.648,-0.264 -2.212,-2.673 -5.023,-1.333 1.465,1.015 3.012,2.088 4.629,3.212 12.939,8.995 30.366,21.214 45.977,32.139 7.806,5.463 15.158,10.602 21.268,14.853 l 2.232,1.551 1.069,0.743 0.523,0.362 c -1.008,1.874 -0.595,0.345 -0.959,0.685 -1.447,-0.804 -2.797,-1.554 -4.038,-2.24 -2.484,-1.373 -4.531,-2.495 -6.037,-3.306 -3.014,-1.621 -3.865,-1.996 -1.712,-0.64 1.075,0.679 2.902,1.789 5.584,3.393 1.341,0.802 2.896,1.728 4.678,2.784 l 1.379,0.816 0.179,0.106 c 0.644,-0.977 -1.378,2.224 1.455,-2.183 l -0.042,-0.031 -0.085,-0.062 -0.34,-0.25 -0.697,-0.511 c -0.943,-0.69 -1.94,-1.42 -2.994,-2.19 l 3.187,2.294 0.796,0.574 0.199,0.144 c 0.327,-0.489 -2.775,4.3 -1.469,2.268 l -0.013,-0.008 -0.027,-0.015 -0.053,-0.03 -0.106,-0.062 -0.425,-0.247 -1.699,-0.984 -6.794,-3.94 -13.59,-7.879 -27.18,-15.759 c 4.403,2.726 17.273,10.248 34.584,20.29 4.328,2.511 8.933,5.179 13.753,7.968 l 0.906,0.525 0.455,0.263 0.057,0.033 c -1.492,2.336 2.108,-3.137 1.707,-2.594 l -0.107,-0.077 -0.214,-0.154 -1.724,-1.238 -3.498,-2.514 c -2.354,-1.692 -4.752,-3.414 -7.185,-5.161 -9.733,-6.988 -20.035,-14.379 -30.436,-21.841 -10.401,-7.462 -20.899,-14.994 -31.023,-22.264 l -0.474,-0.341 -0.237,-0.169 -0.118,-0.085 -0.059,-0.043 c 0.333,-0.606 -3.232,5.056 -1.687,2.68 l 1.008,0.582 2.008,1.162 3.983,2.304 c 2.64,1.526 5.247,3.035 7.813,4.521 5.133,2.971 10.103,5.851 14.848,8.603 18.978,11.009 34.349,19.983 42.089,24.642 l 21.501,12.318 0.084,0.047 0.042,0.025 c -0.399,0.694 3.695,-5.911 1.94,-3.13 l -0.161,-0.108 -0.321,-0.217 -0.642,-0.432 -1.285,-0.865 -2.57,-1.73 -5.139,-3.459 -10.278,-6.918 -41.112,-27.675 -20.556,-13.837 -10.278,-6.919 -1.285,-0.864 -0.642,-0.433 -0.161,-0.108 -0.08,-0.054 c 0.312,-0.554 -2.937,4.683 -1.538,2.479 l 0.042,0.024 0.336,0.193 2.687,1.54 5.375,3.079 43.002,24.636 c -5.587,-2.951 22.475,13.659 -5.088,-2.16 42.308,24.44 79.406,45.898 23.653,14.103 l 19.266,11.039 9.638,5.524 4.82,2.764 2.411,1.381 1.205,0.692 0.301,0.172 c -0.321,0.913 4.417,-6.998 2.248,-3.753 l -0.584,-0.376 -37.427,-24.066 -37.473,-24.115 -18.751,-12.075 -9.38,-6.041 -4.69,-3.022 -2.345,-1.511 -1.173,-0.756 -0.293,-0.188 c 0.232,-0.808 -3.622,6.026 -1.822,3.231 l 0.605,0.347 77.483,44.572 38.787,22.333 2.425,1.397 1.212,0.698 0.606,0.35 c 0.864,-1.208 -1.504,2.95 2.013,-2.664 l -0.295,-0.189 -4.712,-3.021 -9.426,-6.044 -18.854,-12.093 -75.456,-48.423 -18.871,-12.117 -2.359,-1.515 -1.18,-0.757 c -0.812,1.133 1.403,-2.805 -1.896,2.493 l 0.304,0.175 0.606,0.35 4.857,2.803 9.714,5.605 38.856,22.427 77.707,44.872 9.712,5.61 4.855,2.804 c 3.172,-5.392 0.711,-1.604 1.342,-2.857 l -0.294,-0.191 -0.587,-0.382 -1.176,-0.763 -2.351,-1.527 -18.807,-12.216 -37.602,-24.428 -75.145,-48.822 -9.385,-6.098 -2.346,-1.524 -1.174,-0.762 -0.293,-0.191 c -0.843,1.181 1.472,-2.911 -1.964,2.599 l 0.606,0.349 4.844,2.8 19.373,11.195 38.719,22.374 77.318,44.671 9.652,5.576 4.825,2.787 c -0.195,0.735 3.32,-5.451 1.667,-2.934 l -0.296,-0.184 -0.591,-0.368 -1.183,-0.735 -2.366,-1.47 -18.92,-11.755 -37.799,-23.483 c -25.182,-15.641 -50.326,-31.254 -75.426,-46.834 l -9.41,-5.841 -1.176,-0.73 -0.294,-0.182 c -0.854,1.227 1.495,-3.005 -1.988,2.705 l 0.599,0.346 2.397,1.383 4.795,2.766 19.165,11.054 38.277,22.068 c 25.493,14.694 50.935,29.351 76.319,43.965 l 9.516,5.478 4.756,2.738 0.595,0.342 c 0.764,-1.131 -1.292,2.774 1.789,-2.493 l -0.29,-0.183 -1.16,-0.731 -2.321,-1.463 -18.55,-11.69 -37.035,-23.326 c -26.569,-16.863 -11.139,-7.37 -0.822,-1.025 -36.431,-22.67 -53.756,-33.717 -66.934,-42.246 -6.589,-4.264 -12.141,-7.898 -18.526,-12.041 -3.192,-2.071 -6.592,-4.269 -10.434,-6.737 -1.922,-1.234 -3.953,-2.535 -6.124,-3.921 l -0.821,-0.524 -0.104,-0.066 c 2.053,-3.408 -2.831,4.621 -2.313,3.803 l 0.027,0.015 0.053,0.031 0.213,0.125 0.43,0.25 1.752,1.02 c 1.188,0.69 2.415,1.403 3.686,2.14 l 109.273,62.072 c 43.976,25.693 9.417,6.05 12.556,8.066 l 19.29,11.152 9.633,5.567 2.407,1.391 0.301,0.174 c 1.013,-1.57 -2.055,3.637 2.309,-3.497 l -0.146,-0.095 -0.583,-0.377 -1.166,-0.756 -4.663,-3.021 -37.213,-24.093 c -24.749,-16.017 -49.371,-31.938 -73.807,-47.73 -12.218,-7.897 -24.391,-15.761 -36.509,-23.589 l -1.136,-0.734 -0.568,-0.367 -0.142,-0.092 c 1.833,-3.084 -2.685,4.081 -2.138,3.391 l 0.293,0.169 2.342,1.348 4.68,2.696 9.345,5.382 18.623,10.725 c 24.769,14.262 49.288,28.38 73.501,42.322 12.106,6.971 24.135,13.899 36.081,20.779 l 17.854,10.285 8.878,5.115 1.107,0.638 0.277,0.16 0.138,0.08 c 0.857,-1.347 -1.724,3.127 1.958,-2.999 l -0.544,-0.335 -2.173,-1.341 -4.339,-2.677 c -23.121,-14.268 -45.883,-28.321 -68.228,-42.13 -22.345,-13.81 -44.274,-27.377 -65.729,-40.67 l -16.001,-9.918 -3.971,-2.463 -1.982,-1.229 -0.99,-0.614 -0.495,-0.307 -0.123,-0.077 c 0.335,-0.719 -3.586,5.855 -1.856,3.113 l 0.251,0.146 8.03,4.653 c 10.673,6.189 21.22,12.309 31.631,18.357 53.229,30.368 -12.376,-7.963 57.783,32.418 -47.831,-27.09 3.148,2.466 58.469,34.49 l 5.197,3.008 1.301,0.753 0.081,0.047 c -0.334,0.68 3.348,-5.665 1.745,-3.007 l -0.16,-0.098 -0.321,-0.197 -0.641,-0.393 -2.563,-1.571 -10.208,-6.261 c -6.763,-4.148 -13.411,-8.225 -19.762,-12.122 -12.703,-7.794 -24.219,-14.865 -33.095,-20.33 -17.751,-10.929 -24.939,-15.432 -9.933,-6.438 -16.837,-10.018 -40.792,-24.518 -66.793,-40.326 -6.5,-3.952 -13.129,-7.985 -19.806,-12.051 l -1.252,-0.763 -0.313,-0.19 -0.157,-0.096 c 1.485,-2.528 -2.125,3.382 -1.709,2.799 l 0.079,0.046 0.637,0.365 2.547,1.464 5.103,2.933 10.208,5.87 c 13.592,7.818 27.061,15.569 39.761,22.873 50.802,29.216 89.311,51.282 74.317,41.85 10.493,6.047 19.445,11.217 27.028,15.608 1.896,1.097 3.707,2.146 5.434,3.148 l 2.529,1.467 0.308,0.178 0.077,0.045 c 0.306,-0.474 -0.633,1.093 0.697,-1.058 l -0.037,-0.024 -0.148,-0.096 -0.588,-0.381 -1.152,-0.748 c -3.036,-1.97 -5.761,-3.742 -8.196,-5.329 -9.741,-6.348 -14.847,-9.735 -16.672,-11.012 -3.649,-2.554 5.828,3.332 17.602,10.859 -47.243,-30.457 -89.914,-57.976 -130.4,-84.155 l -15.084,-9.758 -3.743,-2.422 c -0.627,1.011 1.321,-2.317 -1.42,2.257 l 0.06,0.035 0.12,0.071 0.241,0.138 0.481,0.28 0.962,0.556 1.922,1.114 7.663,4.439 c 10.19,5.906 20.279,11.758 30.303,17.579 20.05,11.642 39.845,23.162 59.695,34.743 6.698,3.822 18.67,10.706 34.662,19.924 7.997,4.608 16.998,9.8 26.849,15.484 2.462,1.421 4.978,2.873 7.544,4.353 l 0.482,0.279 0.242,0.139 c -1.435,2.416 2.113,-3.2 1.682,-2.663 l -0.118,-0.074 -0.946,-0.599 -1.905,-1.207 -3.862,-2.449 c -5.199,-3.295 -10.584,-6.709 -16.139,-10.231 -44.438,-28.173 -99.676,-63.215 -155.948,-98.887 -3.355,5.397 -0.833,1.551 -1.538,2.782 l 0.169,0.097 0.338,0.195 0.677,0.39 1.352,0.782 2.707,1.562 5.417,3.127 10.839,6.257 21.65,12.494 c 14.401,8.31 28.711,16.565 42.775,24.675 28.128,16.22 55.268,31.857 80.168,46.184 l 9.23,5.309 1.139,0.655 0.284,0.163 c 0.703,-1.097 -1.373,2.572 1.612,-2.44 l -0.139,-0.088 -0.55,-0.352 -2.196,-1.404 -4.348,-2.779 c -5.759,-3.682 -11.362,-7.262 -16.792,-10.729 -10.86,-6.935 -21.024,-13.417 -30.34,-19.35 -18.632,-11.864 -33.871,-21.526 -44.502,-28.2 57.85,36.354 -4.172,-3.081 -59.25,-38.772 l 50.142,31.498 -31.174,-19.991 -15.587,-9.995 -7.793,-4.998 -3.897,-2.498 -1.948,-1.25 -0.975,-0.625 -0.03,-0.02 c -1.013,1.643 2.223,-3.703 -2.278,3.678 l 0.063,0.036 0.125,0.072 0.251,0.145 0.501,0.289 64.159,37.005 c 26.061,15.109 33.424,19.333 33.36,19.236 21.799,12.553 -4.944,-3.238 50.354,28.516 5.453,3.146 10.581,6.105 15.415,8.897 2.417,1.396 4.76,2.749 7.034,4.063 l 1.692,0.978 0.837,0.483 0.416,0.241 0.207,0.12 0.052,0.029 c -1.5,2.498 2.111,-3.362 1.711,-2.776 l -0.101,-0.064 -3.181,-2.01 c -8.352,-5.279 -15.678,-9.915 -22.218,-14.06 -13.081,-8.291 -23.022,-14.62 -31.763,-20.203 -17.48,-11.166 -30.157,-19.349 -53.537,-34.284 l 13.088,8.162 -57.833,-36.568 c -42.554,-26.837 150.26,95.516 11.265,8.14 -0.504,-0.365 -5.956,-3.898 -14.436,-9.354 -2.12,-1.363 -4.429,-2.848 -6.898,-4.433 -1.234,-0.793 -2.508,-1.61 -3.818,-2.45 l -0.99,-0.635 -0.499,-0.32 -0.063,-0.04 c -0.839,1.367 1.834,-3.091 -1.889,3.061 l 0.032,0.019 0.129,0.075 0.258,0.152 2.093,1.228 c 5.65,3.314 11.828,6.933 18.291,10.709 25.852,15.109 56.244,32.756 75.443,43.601 -72.63,-41.899 -63.285,-36.968 -36.485,-21.691 l 101.862,58.761 -34.074,-18.828 27.394,15.81 13.723,7.919 6.868,3.963 3.436,1.983 0.429,0.248 0.215,0.124 c 1.04,-1.585 -2.025,3.721 2.387,-3.521 l -0.842,-0.524 -1.684,-1.049 c -17.97,-11.183 -35.984,-22.392 -54.042,-33.628 -36.118,-22.47 -72.411,-45.044 -108.873,-67.72 l -6.839,-4.252 -0.855,-0.532 c 1.808,-3.135 -2.746,4.098 -2.156,3.423 l 0.218,0.126 0.437,0.251 1.745,1.007 3.491,2.011 13.973,8.056 27.994,16.138 c 18.684,10.769 37.41,21.563 56.177,32.38 18.766,10.817 37.573,21.656 56.42,32.519 l 14.143,8.151 7.077,4.079 1.769,1.02 0.443,0.255 c 3.84,-6.427 0.94,-1.86 1.741,-3.329 l -0.216,-0.136 -0.865,-0.543 -3.462,-2.172 -27.726,-17.397 C 243.436,318.241 206.279,294.926 168.98,271.518 l -28.001,-17.574 -7.009,-4.399 -3.505,-2.2 -1.753,-1.1 c 1.557,-2.655 -2.411,3.437 -1.878,2.882 l 0.225,0.129 0.448,0.259 0.897,0.516 14.353,8.277 57.547,33.183 c 38.434,22.166 77.006,44.416 115.706,66.748 l 58.146,33.559 29.144,16.826 14.589,8.424 7.299,4.215 3.65,2.108 1.825,1.054 0.913,0.527 0.456,0.264 c 0.777,-1.22 -1.416,2.916 1.799,-2.701 l -0.227,-0.136 c 3.934,3.103 -218.456,-130.858 -191.057,-113.345 l 11.856,6.999 c 75.785,45.518 -22.315,-12.504 -83.974,-49.573 64.709,38.424 -115.217,-70.138 41.67,23.705 l -60.445,-36.478 -7.555,-4.56 -1.889,-1.14 -0.944,-0.57 -0.237,-0.143 -0.118,-0.071 -0.059,-0.035 c 1.302,-2.23 -1.812,3.014 -1.475,2.483 l 0.03,0.017 0.477,0.277 3.814,2.219 15.257,8.873 30.514,17.746 c 33.527,20.397 115.171,67.49 211.571,122.926 6.024,3.465 12.107,6.962 18.239,10.487 l 9.235,5.309 4.643,2.669 0.581,0.334 0.291,0.168 0.146,0.083 c -1.955,3.475 2.854,-4.623 2.278,-3.837 l -1.147,-0.697 -2.299,-1.396 c -12.271,-7.452 -24.703,-15.003 -37.236,-22.614 -25.063,-15.223 -50.523,-30.691 -75.863,-46.103 -50.68,-30.825 -100.885,-61.43 -146.499,-89.423 12.866,7.931 16.174,10.061 17.737,11.078 -10.139,-6.227 -20.435,-12.54 -30.837,-18.913 l -15.679,-9.6 -7.887,-4.826 -1.976,-1.208 -0.989,-0.606 -0.247,-0.15 -0.124,-0.076 c 0.361,-0.785 -3.806,6.436 -1.973,3.42 l 0.502,0.29 4.017,2.325 c 21.438,12.408 43.106,24.926 64.598,37.326 42.983,24.8 85.262,49.129 123.588,71.164 38.324,22.036 72.695,41.778 99.863,57.405 6.792,3.907 13.134,7.557 18.975,10.92 l 0.068,0.04 c 3.275,-5.472 0.869,-1.541 1.583,-2.773 l -0.136,-0.081 -0.268,-0.163 -0.536,-0.325 -1.064,-0.645 -2.091,-1.268 -4.04,-2.45 c -2.628,-1.594 -5.127,-3.112 -7.489,-4.547 -9.45,-5.741 -16.722,-10.176 -21.413,-13.069 l -14.677,-8.339 c -69.339,-42.574 -108.113,-66.373 -150.308,-92.095 -21.097,-12.861 -43.049,-26.202 -70.105,-42.611 -6.764,-4.101 -13.846,-8.395 -21.314,-12.922 l -5.675,-3.438 -2.893,-1.753 -1.461,-0.885 -0.734,-0.445 -0.368,-0.223 -0.092,-0.056 c 1.599,-2.737 -2.3,3.656 -1.847,3.028 l 0.187,0.107 c 3.987,2.295 8.081,4.652 12.288,7.073 16.831,9.688 35.493,20.424 56.524,32.522 -2.201,-1.363 -21.494,-12.667 5.093,2.563 40.338,23.713 80.766,47.476 195.836,113.794 l -4.584,-2.826 44.948,25.975 5.618,3.246 2.81,1.624 1.404,0.811 0.702,0.407 0.352,0.202 c -0.378,0.702 3.53,-5.97 1.851,-3.161 l -0.042,-0.026 -0.087,-0.053 -0.173,-0.106 -11.072,-6.773 -22.141,-13.546 -88.567,-54.186 c 0.22,1.03 -75.616,-45.598 -158.262,-96.371 l -15.559,-9.557 -7.807,-4.796 -3.906,-2.399 -0.488,-0.3 c 0.293,-0.659 -3.213,5.343 -1.66,2.842 l 0.124,0.072 0.247,0.144 0.992,0.574 1.981,1.15 c 10.565,6.129 21.101,12.237 31.47,18.245 20.738,12.015 40.809,23.626 59.115,34.18 36.612,21.108 66.162,37.988 79.861,45.418 17.55,10.391 59.207,34.611 103.77,60.475 l 16.807,9.753 8.428,4.89 4.206,2.44 2.099,1.218 0.131,0.076 0.066,0.038 c -0.348,0.669 3.386,-5.62 1.769,-2.98 l -0.258,-0.159 -0.516,-0.317 -1.032,-0.635 c -11.003,-6.764 -21.86,-13.437 -32.243,-19.82 -20.764,-12.766 -39.634,-24.371 -53.999,-33.223 -0.298,-0.107 -4.13,-2.372 -13.704,-8.147 -33.824,-21.18 -82.972,-51.181 -133.072,-81.658 -12.526,-7.62 -25.11,-15.268 -37.53,-22.817 -6.21,-3.774 -12.379,-7.523 -18.478,-11.23 l -4.561,-2.773 -1.136,-0.691 -0.567,-0.345 -0.284,-0.172 c 0.346,-0.674 -3.391,5.634 -1.769,2.988 l 0.072,0.041 0.144,0.082 2.297,1.317 9.105,5.223 c 24.091,13.822 46.601,26.76 65.707,37.818 49.925,29.052 28.1,16.752 6.274,4.452 49.514,28.212 117.556,67.706 177.73,102.711 15.044,8.752 29.596,17.222 43.243,25.166 3.412,1.986 6.768,3.939 10.06,5.855 l 2.458,1.43 0.61,0.356 0.305,0.177 0.152,0.089 c -2.372,4.052 3.331,-5.462 2.701,-4.507 l -0.074,-0.047 -1.195,-0.737 -4.718,-2.911 c -6.224,-3.839 -12.174,-7.509 -17.8,-10.977 -22.504,-13.871 -39.822,-24.515 -48.709,-29.875 -71.278,-43.567 -26.88,-15.769 -46.655,-27.481 -105.69,-64.877 18.556,9.739 -123.813,-76.709 16.474,10.164 46.994,28.91 35.116,21.745 -27.182,-16.565 -65.236,-39.311 -103.236,-62.094 l -1.781,-1.069 -0.445,-0.266 -0.223,-0.134 c -2.945,4.903 -0.784,1.378 -1.426,2.48 l 0.056,0.033 0.113,0.063 0.904,0.511 3.613,2.043 7.213,4.078 14.306,8.098 c 9.464,5.364 18.752,10.637 27.69,15.73 17.876,10.185 34.354,19.648 48.048,27.656 l -36.444,-20.723 c 50.149,29.18 109.719,63.214 158.704,91.229 24.493,14.006 46.339,26.509 63.038,36.148 4.175,2.409 8.029,4.64 11.521,6.67 1.747,1.016 3.402,1.98 4.964,2.893 l 1.152,0.674 0.283,0.166 0.071,0.041 c 1.291,-2.196 0.317,-0.633 0.588,-1.134 l -0.139,-0.084 -0.548,-0.334 -2.102,-1.282 c -5.412,-3.305 -9.238,-5.699 -11.17,-7.007 l 9.571,5.174 C 298.923,284.617 398.089,343.075 224.025,239.432 l 2.091,1.344 c -18.947,-11.379 -35.734,-21.413 -50.833,-30.423 l -5.584,-3.332 -1.372,-0.819 -0.341,-0.203 -0.171,-0.102 -0.085,-0.051 -0.042,-0.026 c -0.429,0.701 0.898,-1.602 -0.972,1.564 l 0.686,0.394 2.723,1.565 c 3.605,2.071 7.111,4.086 10.525,6.047 6.829,3.923 13.29,7.635 19.445,11.176 24.618,14.165 44.319,25.59 62.908,36.767 l -26.409,-15.127 c 94.817,54.814 103.363,59.681 200.112,115.495 5.63,3.293 20.107,11.706 34.867,20.249 3.691,2.135 7.398,4.279 10.99,6.353 1.795,1.037 3.563,2.057 5.284,3.049 l 0.643,0.371 0.32,0.184 0.16,0.093 0.079,0.045 0.02,0.012 c -0.3,0.532 2.724,-4.573 1.433,-2.418 l -0.04,-0.024 -1.243,-0.761 -2.427,-1.482 c -6.353,-3.88 -11.721,-7.143 -15.052,-9.137 -3.992,-3.193 -220.866,-135.669 -263.254,-161.595 75.331,46.265 39.441,24.594 17.944,11.729 -11.054,-6.926 -21.256,-13.295 -31.306,-19.538 l -15.05,-9.324 -1.891,-1.168 -0.474,-0.292 -0.119,-0.073 -0.059,-0.036 -0.03,-0.019 c -0.622,1.038 1.352,-2.351 -1.402,2.323 l 0.24,0.141 0.965,0.56 3.875,2.252 7.864,4.56 c 21.22,12.288 44.658,25.726 75.995,43.601 8.566,5.866 20.513,13.745 143.756,84.953 -19.035,-11.129 -48.943,-28.475 -36.58,-21.526 12.633,7.104 41.14,23.771 50.793,29.412 12.364,6.949 -27.108,-15.987 -13.164,-8.254 20.704,12.173 40.041,23.451 59.284,34.613 l 14.436,8.362 7.241,4.187 0.226,0.131 0.114,0.066 c 1.085,-1.812 -2.35,4.101 2.448,-4.054 l -0.056,-0.034 -0.448,-0.271 -0.898,-0.543 -1.796,-1.086 -3.602,-2.177 c -9.62,-5.813 -19.375,-11.697 -29.421,-17.752 -40.183,-24.223 -85.026,-51.19 -144.585,-87.332 37.709,23.062 5.112,3.549 -8.676,-4.457 -4.373,-3.171 -45.275,-27.656 -79.338,-48.045 -8.515,-5.098 -16.603,-9.94 -23.586,-14.128 -3.492,-2.095 -6.707,-4.026 -9.561,-5.744 -1.428,-0.86 -2.765,-1.665 -4,-2.412 l -0.459,-0.278 -0.029,-0.016 c 0.339,-0.615 -3.098,5.254 -1.627,2.779 l 0.057,0.033 0.114,0.066 0.226,0.13 0.879,0.508 1.637,0.95 c 8.288,4.807 9.364,5.559 -2.257,-0.814 59.166,33.957 126.246,72.581 195.028,112.235 34.391,19.827 69.207,39.912 103.673,59.799 l 0.404,0.233 0.203,0.117 c 3.351,-5.793 0.814,-1.675 1.51,-2.999 l -0.798,-0.481 -1.598,-0.962 -3.192,-1.921 -6.379,-3.84 -12.726,-7.66 c -8.468,-5.098 -16.902,-10.175 -25.29,-15.226 -16.777,-10.1 -33.371,-20.09 -49.686,-29.913 -65.26,-39.291 -126.06,-75.894 -176.255,-106.058 -3.138,-1.884 -6.234,-3.745 -9.287,-5.579 l -4.546,-2.731 -2.249,-1.351 -0.56,-0.336 -0.279,-0.168 c 0.251,-0.638 -2.949,5.106 -1.515,2.72 l 0.141,0.081 1.126,0.648 c 5.996,3.453 11.812,6.8 17.436,10.036 11.249,6.47 21.731,12.495 31.348,18.015 19.234,11.04 35.012,20.067 46.556,26.623 25.086,14.106 90.623,52.556 131.674,76.274 l -5.36,-3.551 c 28.687,16.77 48.625,28.404 64.506,37.653 7.94,4.625 14.866,8.653 21.363,12.429 l 1.214,0.706 0.602,0.35 0.152,0.088 0.075,0.043 c 3.079,-5.148 0.832,-1.44 1.51,-2.595 l -0.037,-0.023 -0.296,-0.181 -2.352,-1.442 -4.63,-2.838 -9.166,-5.616 c -24.56,-15.047 -51.618,-31.617 -118.168,-72.599 55.09,34.126 31.907,20.251 -24.065,-13.423 l -91.149,-56.513 -18.173,-10.36 c -9.383,-5.788 -19.042,-11.72 -28.91,-17.761 l -1.853,-1.134 -0.463,-0.284 -0.232,-0.142 -0.117,-0.071 c 1.197,-2.045 -1.668,2.764 -1.356,2.277 l 0.029,0.018 0.059,0.034 0.942,0.546 3.782,2.19 7.617,4.409 c 5.101,2.95 10.247,5.922 15.427,8.911 20.724,11.957 42.017,24.195 63.333,36.445 -20.526,-11.858 -9.294,-5.434 -7.983,-4.806 9.962,6.243 56.53,33.346 103.799,60.788 23.634,13.721 47.443,27.528 66.939,38.854 9.748,5.663 18.418,10.706 25.449,14.809 1.757,1.026 3.413,1.992 4.957,2.895 l 2.231,1.306 1.051,0.616 c -1.948,3.311 2.696,-4.485 2.2,-3.693 l -0.032,-0.019 -0.063,-0.039 -0.127,-0.078 -0.25,-0.153 -0.491,-0.302 c -2.595,-1.592 -4.715,-2.9 -6.291,-3.882 -41.542,-24.125 -109.94,-66.655 -140.379,-84.135 -13.407,-8.236 -30.814,-18.861 -49.735,-30.382 19.858,11.572 27.333,15.614 -9.796,-6.607 -3.185,-1.935 -5.667,-3.432 -8.676,-5.257 l -16.375,-9.329 C 242.772,204.882 223.744,193.339 206.26,182.743 l -1.635,-0.991 -0.102,-0.062 -0.025,-0.015 c -4.476,7.585 -1.226,2.111 -2.219,3.808 l 0.052,0.03 0.206,0.119 0.411,0.238 0.822,0.476 3.258,1.887 6.391,3.701 c 4.2,2.431 8.275,4.79 12.198,7.059 7.845,4.54 15.082,8.724 21.49,12.427 -11.584,-6.642 -24.987,-14.276 -39.026,-22.256 16.44,9.41 31.637,18.078 46.377,26.5 5.2,3.003 10.31,5.952 13.719,7.915 -2.413,-1.409 -5.188,-3.022 -8.236,-4.782 23.455,13.411 47.509,27.233 80.777,46.629 33.509,19.133 68.805,39.478 105.214,60.549 9.102,5.268 18.273,10.582 27.505,15.933 l 13.888,8.054 3.485,2.021 1.745,1.013 c -1.921,3.303 2.758,-4.416 2.216,-3.658 l -0.107,-0.067 -0.214,-0.132 -0.429,-0.265 -0.859,-0.531 -6.877,-4.253 c -18.365,-11.358 -36.92,-22.842 -55.581,-34.39 -37.323,-23.096 -75.076,-46.445 -112.595,-69.545 -18.759,-11.549 -37.46,-23.036 -56.02,-34.397 -9.279,-5.681 -18.524,-11.33 -27.723,-16.941 l -13.763,-8.384 -3.429,-2.087 -1.713,-1.041 -0.856,-0.521 -0.428,-0.26 c 0.437,-0.886 -4.385,7.365 -2.283,3.907 l 0.108,0.062 0.218,0.124 6.947,3.958 -4.275,-2.446 -2.202,-1.262 -0.556,-0.318 -0.279,-0.159 -0.018,-0.011 c -0.51,0.834 4.355,-7.309 2.305,-3.857 l 0.035,0.022 0.068,0.042 0.138,0.084 1.103,0.674 c 2.954,1.804 5.983,3.657 9.028,5.521 6.089,3.728 12.238,7.499 17.958,11.018 11.441,7.037 21.166,13.058 25.265,15.681 -15.161,-9.335 -30.315,-18.654 -45.374,-27.905 l -5.643,-3.466 -1.409,-0.865 -0.705,-0.432 -0.352,-0.217 -0.088,-0.054 c -1.008,1.654 2.133,-3.778 -2.283,3.694 l 0.179,0.103 2.862,1.649 11.422,6.578 c 7.598,4.375 15.162,8.728 22.68,13.053 30.073,17.302 59.417,34.163 87.339,50.215 55.843,32.103 105.996,60.966 144.902,83.641 l -5.783,-2.821 c 5.653,3.278 11.225,6.51 16.722,9.698 l 2.058,1.193 0.257,0.149 0.127,0.074 c 1.115,-1.841 -2.403,4.174 2.515,-4.119 l -0.063,-0.039 -0.507,-0.308 -1.011,-0.616 -4.029,-2.456 -7.978,-4.861 c -10.567,-6.44 -20.862,-12.713 -30.929,-18.847 -20.135,-12.267 -39.363,-23.976 -58.048,-35.348 -37.371,-22.745 -72.579,-44.143 -108.56,-65.961 l -3.632,-2.795 c -13.088,-7.915 -28.037,-16.977 -44.303,-26.851 -4.067,-2.468 -8.216,-4.987 -12.439,-7.552 l -3.181,-1.932 -0.799,-0.485 -0.201,-0.121 c 2.836,-4.913 -3.995,6.611 -3.235,5.457 l 0.102,0.058 0.406,0.235 1.628,0.941 6.577,3.802 c 8.838,5.109 17.941,10.373 27.24,15.752 37.195,21.513 77.528,44.86 116.59,67.442 39.063,22.582 76.856,44.4 108.973,62.858 8.029,4.615 15.703,9.019 22.954,13.173 l 5.357,3.068 0.658,0.377 0.329,0.188 0.164,0.093 0.082,0.047 c -2.862,4.878 4.005,-6.584 3.254,-5.43 l -1.284,-0.781 -2.535,-1.541 c -3.35,-2.037 -6.59,-4.004 -9.708,-5.894 -12.471,-7.562 -23.003,-13.907 -31.056,-18.696 C 442.693,296.716 323.755,224.336 264.537,187.835 l -15.202,-8.874 -7.158,-4.38 -3.515,-2.151 -1.742,-1.067 -0.109,-0.066 -0.054,-0.033 c -4.923,8.187 -1.333,2.288 -2.418,4.123 l 0.221,0.127 0.44,0.254 0.878,0.505 c 4.679,2.695 9.247,5.327 13.712,7.899 8.929,5.145 17.443,10.057 25.598,14.763 16.311,9.413 31.185,18.011 45.067,26.044 27.763,16.067 51.556,29.876 74.926,43.435 19.952,11.402 39.709,22.721 59.278,33.955 9.785,5.617 19.522,11.213 29.216,16.788 l 14.505,8.346 1.807,1.041 0.905,0.521 0.451,0.26 0.226,0.13 c -1.959,3.415 2.818,-4.567 2.263,-3.782 l -0.111,-0.068 -3.571,-2.149 -7.128,-4.293 c -37.971,-22.875 -75.239,-45.398 -111.877,-67.568 -36.638,-22.17 -72.647,-43.988 -108.1,-65.451 l -26.486,-16.033 -3.296,-1.994 -1.647,-0.997 -0.412,-0.249 -0.206,-0.124 c 2.169,-3.766 -3.09,5.048 -2.491,4.174 l 0.104,0.06 0.833,0.482 6.654,3.85 13.27,7.676 c 17.66,10.213 35.189,20.34 52.595,30.382 l 1.4,0.68 141.057,81.761 c -18.425,-10.84 -11.507,-6.777 5.323,3.047 8.415,4.912 19.308,11.264 30.75,17.912 l 8.655,5.025 4.349,2.52 2.169,1.257 0.271,0.156 0.135,0.079 c 5.705,-9.55 1.563,-2.66 2.827,-4.796 l -0.033,-0.021 -0.066,-0.041 -0.532,-0.327 -1.063,-0.655 c -5.662,-3.486 -11.222,-6.901 -16.443,-10.095 -44.086,-27.313 -115.844,-71.287 -168.1,-103.102 l -44.28,-27.198 -22.14,-13.598 -11.07,-6.799 -1.384,-0.85 -0.691,-0.425 -0.347,-0.213 -0.086,-0.052 c 2.373,-3.99 -3.261,5.416 -2.668,4.454 l 0.022,0.013 0.044,0.025 0.176,0.101 2.813,1.624 5.626,3.247 c -1.56,-0.906 -3.069,-1.782 -4.529,-2.629 l -2.153,-1.25 -1.049,-0.61 -0.517,-0.3 -0.258,-0.15 -0.128,-0.074 c -2.373,3.934 3.148,-5.408 2.615,-4.424 l 0.063,0.038 c 2.68,1.657 5.17,3.197 7.48,4.626 4.62,2.859 8.518,5.274 11.769,7.291 6.5,4.035 10.41,6.479 12.322,7.695 3.824,2.434 -0.344,-0.039 -7.763,-4.5 -3.709,-2.232 -8.23,-4.96 -12.971,-7.823 l -7.203,-4.346 -3.585,-2.164 -0.444,-0.266 -0.028,-0.017 c -3.935,6.618 -1.074,1.844 -1.945,3.324 l 0.056,0.033 0.112,0.063 0.224,0.127 0.894,0.506 1.764,0.998 c 9.324,5.273 17.13,9.661 18.598,10.38 l 57.284,33.489 c 23.237,13.166 -36.848,-21.681 5.604,2.717 19.214,11.232 57.241,33.253 94.873,55.078 18.816,10.912 37.533,21.776 53.751,31.217 8.109,4.721 15.592,9.086 22.152,12.924 1.64,0.96 3.222,1.886 4.741,2.777 l 1.127,0.662 0.556,0.325 0.068,0.041 c -1.877,3.216 2.604,-4.355 2.123,-3.586 l -0.034,-0.021 -0.136,-0.084 -0.27,-0.166 -2.109,-1.296 c -2.746,-1.69 -5.226,-3.221 -7.404,-4.571 1.388,0.805 3.285,1.92 5.613,3.296 1.164,0.688 2.437,1.441 3.807,2.254 l 0.519,0.308 0.13,0.077 0.017,0.01 c 0.517,-0.865 -4.461,7.557 -2.358,3.99 l -0.008,-0.005 -0.033,-0.019 -0.068,-0.038 -0.267,-0.152 -1.095,-0.62 -2.295,-1.302 c -6.301,-3.579 -14.035,-7.988 -22.574,-12.867 -4.826,-2.82 -4.561,-2.658 -1.439,-0.82 -1.527,-0.874 -2.517,-1.435 -3.956,-2.257 1.796,1.031 2.605,1.492 4.849,2.782 4.818,2.833 12.311,7.247 15.51,9.161 2.237,1.288 4.378,2.521 6.427,3.701 l 3.007,1.732 1.452,0.836 0.179,0.103 0.09,0.052 0.045,0.026 c 5.431,-9.215 1.479,-2.57 2.681,-4.634 l -0.352,-0.212 -0.697,-0.42 c -3.696,-2.23 -7.042,-4.249 -10.07,-6.077 -6.054,-3.656 -10.834,-6.545 -14.57,-8.808 -7.472,-4.525 -10.775,-6.545 -11.784,-7.19 -2.019,-1.289 5.141,2.927 6.477,3.616 -80.71,-47.974 -125.29,-75.479 -187.105,-111.891 20.96,12.401 19.946,11.653 7.452,4.032 -6.247,-3.811 -15.364,-9.339 -26.039,-15.801 -5.338,-3.231 -11.065,-6.695 -17.018,-10.295 l -2.242,-1.356 -1.129,-0.682 -0.141,-0.086 c -4.901,8.197 -1.318,2.296 -2.393,4.137 l 0.072,0.041 0.286,0.165 0.574,0.332 4.628,2.672 9.405,5.429 c 50.519,29.163 105.029,60.625 78.587,45.867 60.866,34.323 41.435,23.883 80.465,45.718 -42.631,-24.501 -85.068,-49.134 -125.388,-72.618 -10.08,-5.871 -20.028,-11.67 -29.813,-17.377 -4.893,-2.853 -9.745,-5.684 -14.553,-8.489 l -3.598,-2.1 -0.224,-0.13 -0.112,-0.066 -0.056,-0.032 c 3.545,-6.002 1.014,-1.645 1.82,-2.976 l 0.443,0.271 0.885,0.541 1.766,1.079 7.024,4.291 c 18.637,11.385 36.513,22.308 53.394,32.604 l -33.419,-19.957 -16.709,-9.977 -8.355,-4.988 -4.177,-2.495 -1.044,-0.624 -0.131,-0.078 -0.065,-0.039 -0.033,-0.019 c 0.913,-1.549 -1.264,2.096 -1.031,1.726 l 0.017,0.01 0.264,0.15 0.528,0.302 2.114,1.204 -2.087,-1.246 -0.536,-0.319 -0.136,-0.081 -0.067,-0.04 -0.034,-0.021 c 0.415,-0.726 -0.976,1.6 0.922,-1.634 l 0.268,0.167 1.087,0.676 c 1.464,0.91 2.986,1.854 4.563,2.827 3.152,1.949 6.522,4.02 10.076,6.197 7.109,4.352 14.958,9.126 23.29,14.171 16.665,10.091 35.266,21.273 53.756,32.37 36.981,22.191 73.519,44.039 93.247,56.125 -26.568,-16.28 -86.725,-52.431 -88.944,-53.564 l 18.212,10.294 c 47.59,28.628 90.235,54.479 129.391,78.299 l 7.301,4.443 3.621,2.204 0.902,0.549 0.451,0.274 0.112,0.069 c -2.731,4.623 -0.79,1.262 -1.414,2.286 l -0.057,-0.033 -0.228,-0.133 -1.819,-1.058 c -4.847,-2.819 -9.641,-5.608 -14.385,-8.37 -9.488,-5.522 -18.779,-10.934 -27.896,-16.246 -18.232,-10.623 -35.765,-20.846 -52.782,-30.759 64.469,36.987 -77.989,-45.453 -31.065,-18.863 l 50.971,29.516 c 23.416,13.271 -25.795,-15.359 -54.393,-32.078 -20.131,-11.559 -42.349,-24.337 -65.93,-37.913 -11.79,-6.788 -23.921,-13.777 -36.303,-20.911 -6.19,-3.568 -12.444,-7.171 -18.749,-10.806 l -4.737,-2.731 -2.376,-1.37 -1.19,-0.685 c -0.679,0.546 0.485,0.563 0.636,0.872 l 9.409,5.773 c 50.34,30.894 103.199,63.365 152.886,93.886 24.844,15.26 48.894,30.033 71.441,43.877 5.636,3.461 11.179,6.864 16.617,10.202 l 8.075,4.958 3.977,2.441 1.972,1.21 c 0.254,0.042 0.821,0.758 0.817,0.247 l -0.996,-0.575 c -10.604,-6.114 -20.735,-11.954 -30.303,-17.467 -38.273,-22.052 -67.536,-38.871 -82.008,-47.086 16.489,9.429 39.823,22.894 62.61,36.092 11.392,6.599 22.648,13.131 32.843,19.059 5.098,2.963 9.93,5.775 14.382,8.369 l 3.266,1.904 c 0.124,-1.11 -1.743,-1.411 -2.476,-2.13 -1.988,-1.235 -3.868,-2.403 -5.626,-3.496 l 4.65,2.838 2.325,1.419 1.162,0.71 0.291,0.177 c -0.109,0.276 0.448,-0.491 -0.208,0.641 l -0.148,-0.085 -0.59,-0.339 -9.452,-5.42 -18.902,-10.84 -37.806,-21.68 c 15.328,8.856 29.866,17.214 44.464,25.591 7.299,4.188 14.614,8.381 22.05,12.643 -5.083,-5.027 -14.134,-9.155 -21.294,-13.956 -30.64,-18.7 -64.86,-39.628 -109.346,-67.084 15.197,8.884 -49.085,-31.24 18.843,9.87 42.679,26.046 72.733,44.499 97.016,59.495 3.035,1.875 5.98,3.695 8.848,5.47 l 4.247,2.628 2.084,1.291 1.031,0.639 c 1.617,-2.642 -2.117,3.652 -1.769,2.982 l -0.065,-0.038 -0.131,-0.076 -0.261,-0.152 -0.52,-0.304 c -5.547,-3.231 -10.836,-6.317 -15.977,-9.321 -10.28,-6.008 -19.965,-11.685 -29.925,-17.524 -39.839,-23.361 -84.075,-49.325 -188.418,-109.484 -9.607,-5.615 1.228,0.824 0.594,0.628 -0.317,-0.097 -3.501,-1.854 -13.542,-7.605 -2.51,-1.439 -5.449,-3.126 -8.878,-5.1 -1.715,-0.986 -3.553,-2.045 -5.521,-3.179 l -3.051,-1.759 -1.6,-0.924 -0.204,-0.117 c -1.178,1.978 1.537,-2.736 1.286,-2.233 l 0.05,0.031 0.101,0.061 0.407,0.245 0.823,0.496 c 8.844,5.339 19.877,12.011 33.589,20.319 68.979,41.869 128.656,78.264 171.001,104.264 21.172,13 38.012,23.401 49.514,30.587 1.437,0.898 2.792,1.746 4.06,2.543 l 1.84,1.155 c 0.401,-0.136 0.349,1.092 1.109,-0.174 l -0.849,-0.513 c -2.22,-1.342 -4.086,-2.48 -5.582,-3.405 -2.994,-1.851 -4.512,-2.849 -4.425,-2.921 1.837,1.069 3.731,2.172 5.677,3.304 l 2.958,1.723 1.507,0.877 0.76,0.443 0.191,0.111 0.048,0.028 c -1.645,2.837 -0.483,0.77 -0.863,1.395 l -0.094,-0.057 -0.378,-0.23 c -4.045,-2.462 -8.279,-5.038 -12.661,-7.705 -8.766,-5.333 -18.131,-11.03 -27.792,-16.904 -19.323,-11.748 -39.83,-24.204 -59.09,-35.876 -38.522,-23.345 -72.058,-43.555 -81.167,-48.696 57.919,35.253 158.161,95.94 163.096,99.381 60.453,35.665 -109.604,-66.408 -30.425,-19.302 20.378,12.312 34.924,21.165 46.739,28.384 l 1.1,0.673 0.543,0.332 0.068,0.042 0.034,0.02 0.017,0.01 c 0.405,-0.68 -0.884,1.538 0.913,-1.522 l -0.137,-0.08 -0.272,-0.159 -2.15,-1.258 -4.137,-2.422 c -2.692,-1.577 -5.259,-3.083 -7.754,-4.545 -4.986,-2.924 -9.674,-5.673 -14.455,-8.469 27.286,16.093 -37.271,-20.948 -49.635,-27.897 -66.88,-38.608 -119.588,-68.948 -173.498,-99.973 l -10.126,-5.828 -5.081,-2.924 c -0.094,1.129 2.852,2.074 4.133,3.123 6.699,4.098 13.446,8.226 20.27,12.402 13.649,8.352 27.608,16.895 42.114,25.775 29.012,17.76 60.21,36.872 95.487,58.503 7.553,4.515 23.2,13.852 19.231,11.214 17.201,10.614 36.21,22.4 54.644,33.869 9.215,5.734 18.289,11.39 26.918,16.779 3.98,2.299 9.273,6.212 11.825,6.973 -4.123,-2.429 -8.097,-4.772 -11.883,-7.007 -30.286,-17.883 -48.544,-28.857 -35.39,-21.517 -82.102,-47.437 -86.573,-49.631 -156.401,-90.172 111.839,63.839 -21.927,-12.537 -33.599,-20.063 -35.704,-20.661 -41.976,-24.188 -43.444,-24.906 -0.734,-0.359 -0.267,-0.015 -1.678,-0.761 -0.705,-0.373 -1.881,-1.019 -3.91,-2.16 -1.014,-0.571 -2.242,-1.265 -3.732,-2.112 l -0.07,-0.04 -0.018,-0.01 c 1.15,-1.95 -1.589,2.644 -1.297,2.176 l 0.034,0.022 0.141,0.083 0.285,0.171 0.588,0.351 1.254,0.752 c 0.871,0.522 1.812,1.087 2.829,1.698 11.733,7.205 39.757,24.476 41.432,25.706 43.632,25.872 -83.285,-52.115 -31.999,-21.696 35.508,21.102 187.37,112.455 198.195,118.962 33.33,20.9 22.275,16.968 -28.567,-12.986 2.597,1.807 19.356,11.853 39.329,23.784 9.987,5.966 20.778,12.403 31.003,18.518 5.113,3.058 10.084,6.035 14.743,8.832 l 3.433,2.062 1.668,1.003 0.821,0.495 0.406,0.245 0.102,0.061 0.051,0.03 0.025,0.015 c -0.411,0.729 3.715,-6.262 1.954,-3.311 l -0.205,-0.117 c -2.179,-1.249 -4.259,-2.443 -6.215,-3.569 C 399.306,284.563 352.186,256.035 276.575,212.674 l 57.285,33.488 c -6.271,-3.526 -37.172,-21.38 -68.687,-39.644 -15.757,-9.133 -31.668,-18.369 -44.73,-25.967 -1.633,-0.95 -3.221,-1.875 -4.759,-2.77 l -1.144,-0.666 -0.565,-0.329 -0.035,-0.02 c 1.753,-2.98 -2.434,4.031 -1.983,3.321 l 0.068,0.043 0.138,0.085 0.275,0.171 2.152,1.336 c 2.814,1.747 5.408,3.359 7.734,4.806 4.653,2.896 8.236,5.134 10.381,6.488 0.734,0.386 -2.392,-1.656 -6.964,-4.613 -2.285,-1.477 -4.932,-3.185 -7.637,-4.932 l -4.065,-2.627 -1.003,-0.65 -0.497,-0.321 -0.248,-0.16 -0.062,-0.04 -0.015,-0.011 c 0.653,-1.102 -1.485,2.456 1.461,-2.475 l 0.032,0.018 0.125,0.076 1.966,1.199 c 10.264,6.265 16.568,10.25 -0.756,0.403 l -1.59,-0.916 c -1.495,2.142 0.483,1.145 0.554,1.872 l 3.123,1.919 6.236,3.835 12.418,7.641 c 8.251,5.081 16.441,10.13 24.541,15.128 16.198,9.996 32.031,19.787 47.25,29.217 30.439,18.859 58.421,36.273 81.96,50.98 47.079,29.414 76.385,48.007 72.022,45.716 L 257.385,207.818 c -7.434,-3.917 144.997,89.885 136.18,85.249 l 94.254,57.883 2.946,1.809 0.736,0.452 0.368,0.227 0.185,0.113 0.092,0.056 c 1.322,-2.196 -2.896,4.956 2.976,-4.916 l -0.047,-0.027 -1.497,-0.863 -5.99,-3.451 -11.98,-6.902 -23.96,-13.804 -47.919,-27.609 c 24.286,14.042 98.077,56.828 68.875,40.326 -82.282,-47.54 -42.721,-24.552 -97.716,-56.002 23.489,13.766 51.84,30.419 82.108,48.223 7.567,4.451 15.254,8.973 23.015,13.541 l 11.69,6.881 1.468,0.864 0.734,0.432 0.184,0.108 c 0.247,-0.292 -1.659,2.84 -0.902,1.483 l -0.091,-0.057 -0.361,-0.226 -2.89,-1.813 -5.791,-3.632 C 468.593,336.466 453.024,326.696 437.709,317.08 376.448,278.616 319.23,242.617 289.219,223.64 l 96.958,60.104 24.506,14.692 c 15.796,9.786 31.386,19.477 46.643,28.987 7.628,4.754 15.172,9.464 22.615,14.116 l 11.088,6.936 2.748,1.719 0.342,0.214 c 0.249,-0.298 -1.695,2.889 -0.921,1.511 l -0.087,-0.051 -0.174,-0.102 -0.697,-0.41 -1.39,-0.817 -5.536,-3.255 c -29.403,-17.296 -56.909,-33.562 -81.45,-48.12 -49.08,-29.117 -86.297,-51.404 -103.095,-61.436 -74.211,-42.681 -48.901,-26.686 -31.357,-16.288 -18.203,-10.5 -34.088,-19.696 -48.238,-27.914 -3.537,-2.053 -6.966,-4.047 -10.296,-5.985 l -4.921,-2.864 -2.407,-1.403 c 0.003,1.616 1.351,1.271 1.952,1.997 6.206,3.786 12.056,7.36 17.62,10.765 22.256,13.624 39.95,24.556 57.681,35.506 35.464,21.9 71.078,43.876 143.645,87.611 L 369.91,286.514 c 17.072,10.377 56.739,34.301 90.464,54.651 8.431,5.087 16.49,9.951 23.732,14.324 1.811,1.093 3.571,2.156 5.272,3.183 l 1.266,0.765 0.624,0.376 0.309,0.188 0.077,0.047 0.039,0.023 c 4.061,-6.889 1.104,-1.923 1.999,-3.466 l -0.155,-0.09 -2.444,-1.411 c -3.194,-1.845 -6.124,-3.539 -8.736,-5.049 -10.444,-6.042 -15.776,-9.151 -12.387,-7.258 -29.205,-16.494 -56.295,-31.268 -23.944,-12.357 L 316.599,254.417 c 19.035,11.128 6.093,4.765 14.077,9.57 -52.195,-30.091 -88.377,-52.303 -55.218,-33.341 -25.57,-14.561 -43.155,-24.591 -56.448,-32.179 -3.322,-1.898 -6.378,-3.642 -9.222,-5.267 -1.422,-0.811 -2.791,-1.595 -4.116,-2.35 l -0.247,-0.142 c -3.149,5.281 -0.856,1.475 -1.55,2.658 l 0.03,0.018 0.061,0.037 0.121,0.073 0.484,0.292 0.954,0.575 1.865,1.125 c 4.893,2.952 9.182,5.539 13.324,8.036 16.568,9.988 30.768,18.514 71.729,43.001 29.666,18.158 -3.182,-0.746 -24.981,-13.91 67.046,41.163 106.533,65.085 138.411,84.388 -110.722,-67.959 -29.112,-20.26 -49.769,-33.705 l 118.676,74.001 14.835,9.25 7.417,4.625 3.708,2.313 1.855,1.157 0.927,0.578 0.116,0.072 0.058,0.036 c 0.422,-0.673 -0.863,1.557 0.961,-1.499 l -0.235,-0.14 -0.47,-0.277 -30.099,-17.792 -60.201,-35.582 c 8.162,4.91 26.8,16.727 25.4,16.046 -9.917,-6.217 -84.205,-49.385 -172.987,-100.78 -22.195,-12.849 -45.297,-26.212 -68.524,-39.641 l -2.179,-1.26 -1.089,-0.63 -0.136,-0.078 c -3.359,5.586 -0.854,1.595 -1.569,2.863 l 0.27,0.163 0.539,0.324 4.311,2.6 8.623,5.199 17.218,10.379 c 11.454,6.903 22.844,13.766 34.072,20.53 44.911,27.056 87.24,52.53 120.82,72.718 l -20.126,-12.129 c -13.537,-8.323 8.612,4.862 40.034,23.717 15.711,9.427 33.74,20.273 50.786,30.556 8.523,5.142 16.8,10.143 24.419,14.756 3.809,2.307 7.453,4.517 10.882,6.599 l 0.641,0.388 0.318,0.194 0.158,0.096 0.079,0.048 c -0.27,0.515 2.57,-4.36 1.345,-2.309 l -0.04,-0.023 -1.269,-0.739 -2.47,-1.441 c -1.617,-0.943 -3.174,-1.852 -4.662,-2.722 1.973,1.188 4.155,2.481 6.637,3.937 l 0.946,0.554 0.483,0.282 0.244,0.143 0.123,0.072 c 1.162,-1.966 -1.573,2.684 -1.296,2.203 l -0.007,-0.005 -0.015,-0.009 -0.03,-0.019 -0.062,-0.037 -2.018,-1.227 c -1.387,-0.842 -2.861,-1.733 -4.431,-2.681 -6.279,-3.794 -14.111,-8.497 -24.218,-14.589 5.629,3.343 11.008,6.547 16.166,9.629 2.579,1.541 5.104,3.051 7.577,4.533 l 3.672,2.202 1.809,1.086 0.897,0.539 0.447,0.269 0.223,0.134 0.056,0.033 c -0.212,0.442 2.15,-3.668 1.119,-1.947 l -0.112,-0.064 c -9.607,-5.535 -18.455,-10.666 -26.8,-15.53 -16.693,-9.729 -31.381,-18.391 -46.123,-27.08 -29.487,-17.38 -59.193,-34.87 -105.595,-61.225 83.772,48.271 100.096,58.092 95.625,55.899 -68.428,-39.86 -227.631,-131.39 -193.871,-113.055 -5.515,-3.155 -10.959,-6.273 -16.256,-9.311 l -3.944,-2.263 -1.95,-1.119 -0.242,-0.139 -0.121,-0.07 -0.061,-0.034 -0.03,-0.017 c 1.886,-3.203 -2.61,4.34 -2.13,3.573 l 0.478,0.287 0.953,0.572 c 2.536,1.524 5.027,3.021 7.462,4.486 9.743,5.856 18.608,11.189 25.998,15.621 14.782,8.864 23.669,14.122 21.895,12.755 l 166.438,101.257 c -12.351,-7.582 -22.919,-14.312 25.936,15.125 C 340.757,293.815 250.867,238.413 201.267,209.21 c -2.073,-1.974 33.185,18.94 -11.288,-8.541 90.119,54.622 159.739,97.081 220.993,134.547 15.313,9.366 30.103,18.421 44.56,27.275 7.229,4.427 14.374,8.804 21.459,13.145 l 10.587,6.487 2.635,1.614 1.315,0.806 c -1.371,2.35 1.978,-3.134 1.586,-2.597 l -0.083,-0.049 -0.166,-0.097 -0.333,-0.195 -0.665,-0.389 -5.312,-3.112 C 458.26,361.532 430.547,345.3 401.882,328.543 L 241.009,236.179 234.337,232 206.1,216.521 c -10,-5.869 -18.187,-10.683 -24.405,-14.328 l -2.239,-1.311 -1.05,-0.614 -0.507,-0.297 -0.25,-0.146 -0.062,-0.036 -0.03,-0.018 -0.015,-0.009 -0.008,-0.005 c -0.692,1.158 1.538,-2.599 -1.554,2.596 l 0.121,0.074 c 1.286,0.798 2.448,1.515 3.484,2.154 2.072,1.277 3.641,2.234 4.687,2.856 1.826,1.081 1.494,0.831 -0.271,-0.302 -0.881,-0.567 -2.122,-1.355 -3.628,-2.307 -0.754,-0.476 -1.574,-0.993 -2.45,-1.545 l -1.353,-0.852 -0.351,-0.22 -0.088,-0.056 -0.011,-0.007 -0.006,-0.003 c 0.575,-0.971 -1.295,2.168 1.289,-2.178 l 0.022,0.013 0.045,0.027 0.181,0.107 0.735,0.436 -0.793,-0.46 -0.098,-0.057 -0.05,-0.029 -0.025,-0.014 -0.012,-0.008 c -0.575,0.96 1.269,-2.158 -1.292,2.151 l 0.195,0.119 0.388,0.239 1.548,0.953 3.061,1.884 c 2.025,1.247 4.014,2.473 5.956,3.67 3.886,2.395 7.586,4.678 11.01,6.793 6.847,4.23 12.589,7.788 16.497,10.226 3.187,1.733 -2.136,-1.765 -11.971,-8.029 -4.917,-3.132 -10.963,-6.955 -17.636,-11.163 l -5.115,-3.221 -2.631,-1.657 -0.665,-0.419 -0.166,-0.104 c 0.77,-1.421 0.31,-0.336 0.526,-0.627 l 0.339,0.201 1.363,0.809 c 3.646,2.162 7.388,4.38 11.163,6.615 14.5,8.216 29.45,16.69 44.394,25.174 31.378,18.528 53.963,31.995 9.918,6.838 -6.251,-3.665 -14.115,-8.265 -22.515,-13.176 20.038,11.877 32.299,19.21 17.454,10.761 l -61.323,-35.603 -0.958,-0.557 c 0.115,-0.551 -0.935,0.843 0.137,-1.307 l 0.472,0.291 1.886,1.162 3.773,2.324 7.547,4.65 15.093,9.297 30.187,18.596 c -13.732,-8.301 -34.405,-20.727 -58.534,-35.24 75.489,46.8 161.693,100.284 93.83,59.267 l 92.369,56.103 c 53.879,33.426 76.137,47.229 101.353,62.817 6.303,3.897 12.792,7.906 20.005,12.361 l 2.741,1.692 0.697,0.43 0.175,0.108 0.087,0.054 c -0.398,0.73 3.698,-6.217 1.94,-3.291 l -0.045,-0.026 -0.356,-0.208 -1.44,-0.837 c -1.932,-1.124 -3.92,-2.281 -5.97,-3.474 -4.101,-2.386 -8.455,-4.919 -13.129,-7.639 -18.7,-10.878 -42.54,-24.746 -75.913,-44.166 -7.475,-4.03 28.009,16.702 3.893,2.988 C 349.178,309.307 289.557,275.154 239.455,246.512 214.404,232.19 191.733,219.246 174.014,209.074 l -3.264,-1.874 -1.587,-0.912 -0.783,-0.45 -0.388,-0.223 -0.193,-0.111 c -2.517,4.314 -0.671,1.212 -1.22,2.183 l 0.048,0.028 0.095,0.057 c 2.036,1.215 3.99,2.383 5.858,3.5 3.735,2.236 7.124,4.271 10.126,6.082 6.005,3.624 10.465,6.354 13.062,8.012 77.876,46.862 32.184,20.001 81.631,49.858 -2.267,-1.453 -6.805,-4.352 7.587,4.256 l 58.7,35.766 c 23.89,14.103 -54.075,-32.811 12.46,6.796 28.344,17.094 53.767,32.429 77.444,46.702 11.838,7.136 23.239,14.006 34.35,20.699 l 4.154,2.501 1.035,0.623 0.258,0.156 0.129,0.077 c 1.054,-1.748 -2.268,3.968 2.38,-3.909 l -0.066,-0.037 -0.521,-0.303 -2.08,-1.207 -8.266,-4.795 c -5.482,-3.18 -10.908,-6.326 -16.299,-9.45 -43.124,-24.994 -83.935,-48.56 -131.912,-76.12 -136.385,-78.88 58.959,32.867 -56.379,-33.607 -8.577,-4.71 -16.647,-9.105 -31.587,-17.518 -7.471,-4.208 -16.658,-9.418 -28.484,-16.175 -5.914,-3.378 -12.487,-7.144 -19.835,-11.363 -1.837,-1.054 -3.722,-2.137 -5.658,-3.25 l -2.942,-1.691 -0.747,-0.43 -0.094,-0.053 c 0.479,-0.866 -4.424,7.387 -2.322,3.91 l 0.046,0.028 0.185,0.112 0.371,0.227 1.495,0.912 c 4.015,2.449 8.234,5.026 12.672,7.738 37.283,23.164 31.992,20.307 95.549,59.436 l -3.639,-2.979 c 58.783,36.023 105.689,64.878 106.471,64.791 23.986,14.846 44.262,27.325 61.705,38.015 8.721,5.345 16.734,10.242 24.148,14.764 3.707,2.261 7.264,4.428 10.686,6.51 l 2.54,1.546 0.628,0.382 0.078,0.047 c 1.016,-1.701 -2.25,3.824 2.285,-3.81 l -0.02,-0.012 -0.04,-0.023 -0.158,-0.09 -0.317,-0.182 -1.258,-0.722 -4.912,-2.814 c -45.188,-26.285 -28.351,-16.939 2.443,0.478 l 2.927,1.656 1.49,0.844 0.189,0.106 0.046,0.027 c 2.807,-4.676 -3.762,6.404 -3.112,5.248 l -0.092,-0.056 -0.371,-0.223 -0.745,-0.447 c -1.992,-1.197 -4.025,-2.419 -6.09,-3.661 -4.129,-2.483 -8.381,-5.041 -12.661,-7.618 -8.562,-5.155 -17.244,-10.386 -25.305,-15.245 -16.122,-9.718 -29.763,-17.944 -35.004,-21.079 22.002,13.329 42.278,25.658 61.108,37.124 4.708,2.866 9.324,5.679 13.855,8.439 l 3.382,2.061 1.68,1.023 0.052,0.032 c 7.042,-11.855 1.922,-3.304 3.479,-5.958 l -0.106,-0.061 -0.212,-0.122 -0.425,-0.244 -0.847,-0.486 -6.708,-3.855 c -8.86,-5.092 -17.387,-9.993 -25.618,-14.72 -32.922,-18.907 -61.088,-35.027 -86.74,-49.393 l 78.804,45.697 C 273.883,283.728 283.517,287.33 204.845,243.475 c 57.67,33.236 126.706,73.491 92.465,54.127 L 214.011,249.13 c -9.945,-5.548 47.635,27.637 9.257,5.705 -11.843,-6.918 -29.916,-17.487 -47.715,-27.91 l -6.65,-3.894 -3.291,-1.928 -0.409,-0.24 -0.102,-0.059 c 1.738,-2.946 -2.401,3.991 -1.961,3.285 l 0.026,0.015 0.05,0.032 0.201,0.125 0.803,0.498 1.598,0.993 c 4.248,2.637 8.379,5.202 12.293,7.635 7.828,4.864 14.788,9.195 20.08,12.496 l -1.127,-0.737 148.457,90.976 c -28.18,-17.214 -35.032,-21.684 -6.586,-4.308 l 97.127,59.831 c -14.836,-9.174 -14.613,-9.142 -5.2,-3.478 4.707,2.832 11.711,7.072 20.28,12.273 2.141,1.301 4.381,2.661 6.708,4.075 l 1.759,1.07 0.893,0.542 0.028,0.017 c -1.793,3.031 2.479,-4.106 2.023,-3.38 l -0.057,-0.033 -0.114,-0.065 -0.228,-0.131 -0.458,-0.263 -3.728,-2.139 c -5.051,-2.898 -10.405,-5.972 -15.969,-9.17 -127.396,-73.33 -101.121,-60.043 -200.328,-116.571 14.439,8.324 16.73,9.738 31.26,18.112 l -50.973,-29.102 c -2.497,-1.833 -22.461,-13.565 -51.161,-30.249 -3.588,-2.085 -7.312,-4.248 -11.155,-6.478 l -5.853,-3.395 -0.093,-0.053 c 2.719,-4.674 -3.825,6.294 -3.1,5.196 l 0.183,0.112 0.367,0.226 0.735,0.451 1.477,0.906 2.985,1.832 c 8.01,4.914 16.424,10.071 25.107,15.39 17.365,10.637 35.808,21.92 54.252,33.204 73.777,45.136 147.574,90.287 152.565,94.132 71.562,43.1 5.205,2.798 -86.141,-53.789 l 76.161,46.098 c -30.886,-18.942 -56.73,-34.617 -89.694,-54.921"
           style="fill:#ed1c24;fill-opacity:1;fill-rule:nonzero;stroke:none"
           id="path5519"
           /><path
           d="m 205.19,220.453 c 6.309,3.771 8.033,4.722 9.581,5.564 8.608,5.368 8.736,5.555 -9.581,-5.564"
           style="fill:#ed1c24;fill-opacity:1;fill-rule:nonzero;stroke:none"
           id="path5521"
           /><path
           d="m 440.794,408.957 -3.499,-2.014 c -1.868,-1.112 -2.93,-1.758 -3.542,-2.146 z"
           style="fill:#ed1c24;fill-opacity:1;fill-rule:nonzero;stroke:none"
           id="path5523"
           /><path
           d="m 225.124,179.781 c 21.01,12.668 32.737,19.682 40.573,24.328 1.178,0.854 -8.432,-4.861 -40.573,-24.328"
           style="fill:#ed1c24;fill-opacity:1;fill-rule:nonzero;stroke:none"
           id="path5525"
           /><path
           d="m 268.912,165.974 65.401,39.684 c -31.702,-19.193 -43.096,-25.958 -59.081,-35.533 1.565,0.814 14.14,8.227 -6.32,-4.151"
           style="fill:#ed1c24;fill-opacity:1;fill-rule:nonzero;stroke:none"
           id="path5527"
           /><path
           d="m 291.829,174.248 c 9.651,5.642 20.615,11.91 30.088,17.448 l -2.801,-1.359 c -41.231,-23.82 -69.918,-40.592 -27.287,-16.089"
           style="fill:#ed1c24;fill-opacity:1;fill-rule:nonzero;stroke:none"
           id="path5529"
           /><path
           d="m 285.182,179.73 c 5.492,2.703 47.02,26.838 93.331,53.663 -2.78,-1.606 -5.467,-3.163 -8.159,-4.71 13.343,8.358 -36.049,-20.375 -85.172,-48.953"
           style="fill:#ed1c24;fill-opacity:1;fill-rule:nonzero;stroke:none"
           id="path5531"
           /><path
           d="m 389.264,239.615 c 14.244,8.246 28.941,16.743 42.936,24.801 5.265,3.303 -17.506,-10.052 -42.936,-24.801"
           style="fill:#ed1c24;fill-opacity:1;fill-rule:nonzero;stroke:none"
           id="path5533"
           /><path
           d="m 323.903,210.298 c 22.106,12.641 13.546,8.421 26.09,15.472 24.306,14.628 -146.441,-85.271 -26.09,-15.472"
           style="fill:#ed1c24;fill-opacity:1;fill-rule:nonzero;stroke:none"
           id="path5535"
           /><path
           d="m 323.412,200.261 -16.835,-9.143 -25.796,-15.359 z"
           style="fill:#ed1c24;fill-opacity:1;fill-rule:nonzero;stroke:none"
           id="path5537"
           /><path
           d="m 474.268,294.778 18.551,10.671 9.277,5.335 c 0.356,-0.123 0.84,1.217 1.092,-0.107 l -1.146,-0.69 -2.291,-1.381 -4.584,-2.76 -36.666,-22.085 c 1.195,0.624 -8.17,-5.095 -19.489,-11.984 22.55,13.623 46.217,27.898 64.016,38.649 -17.229,-7.845 -29.869,-16.669 -28.76,-15.648"
           style="fill:#ed1c24;fill-opacity:1;fill-rule:nonzero;stroke:none"
           id="path5539"
           /><path
           d="m 439.012,271.777 c -23.569,-14.238 -45.887,-27.742 -58.954,-35.739 12.753,7.718 40.029,24.227 58.954,35.739"
           style="fill:#ed1c24;fill-opacity:1;fill-rule:nonzero;stroke:none"
           id="path5541"
           /><path
           d="m 269.706,170.063 21.668,12.98 51.842,31.298 z"
           style="fill:#ed1c24;fill-opacity:1;fill-rule:nonzero;stroke:none"
           id="path5543"
           /><path
           d="m 265.086,183.583 79.863,48.376 c 8.065,5.069 -13.791,-8.001 -43.532,-26.034 -19.081,-11.658 -48.646,-29.583 -36.331,-22.342"
           style="fill:#ed1c24;fill-opacity:1;fill-rule:nonzero;stroke:none"
           id="path5545"
           /><path
           d="M 459.416,294.611 C 437.4,282.02 435.91,281.289 423.546,274.341 l -2.199,-1.987 z"
           style="fill:#ed1c24;fill-opacity:1;fill-rule:nonzero;stroke:none"
           id="path5547"
           /><path
           d="m 255.707,179.691 c 7.887,4.962 115.75,70.452 14.387,9.217 -1.994,-1.254 -8.492,-5.223 -15.968,-9.782 -3.737,-2.279 -7.719,-4.706 -11.504,-7.013 l -2.795,-1.704 -0.682,-0.416 -0.085,-0.052 -0.042,-0.026 c -1.197,2.003 1.601,-2.745 1.325,-2.249 l 0.021,0.013 0.171,0.099 0.34,0.199 1.339,0.781 c 1.76,1.027 3.413,1.993 4.906,2.865 5.971,3.49 9.362,5.49 6.606,3.94 -1.378,-0.774 -4.294,-2.436 -9.192,-5.244 -1.224,-0.702 -2.573,-1.475 -4.052,-2.324 l -0.139,-0.08 -0.07,-0.04 -0.035,-0.02 c 0.22,-0.42 -2.099,3.551 -1.098,1.881 l 0.278,0.168 0.567,0.34 1.171,0.702 2.49,1.496 c 3.457,2.077 7.458,4.482 12.061,7.249"
           style="fill:#ed1c24;fill-opacity:1;fill-rule:nonzero;stroke:none"
           id="path5549"
           /><path
           d="m 349.463,253.238 -20.351,-12.357 3.537,0.955 z"
           style="fill:#ed1c24;fill-opacity:1;fill-rule:nonzero;stroke:none"
           id="path5551"
           /><path
           d="m 268.717,226.199 c -47.423,-28.505 -52.967,-32.038 -57.376,-34.876 -1.102,-0.71 -2.133,-1.376 -3.729,-2.378 -0.799,-0.5 -1.738,-1.085 -2.899,-1.801 -0.58,-0.358 -1.216,-0.749 -1.917,-1.179 l -0.537,-0.329 -0.07,-0.043 -0.034,-0.021 c -2.138,3.601 2.889,-4.92 2.381,-4.036 l 0.018,0.01 0.142,0.083 0.288,0.169 1.221,0.713 c 6.808,3.971 18.481,10.707 40.169,23.14 11.19,6.6 -6.546,-3.568 -24.202,-13.695 -4.414,-2.532 -8.823,-5.06 -12.774,-7.325 l -2.87,-1.644 -1.357,-0.777 -0.657,-0.376 -0.081,-0.046 -0.02,-0.012 c -0.947,1.589 2.089,-3.572 -2.127,3.559 l 0.04,0.024 0.159,0.095 0.315,0.189 c 1.67,1 3.171,1.897 4.447,2.658 5.102,3.043 6.601,3.902 0.913,0.405 57.108,34.794 87.22,52.815 60.557,37.493"
           style="fill:#ed1c24;fill-opacity:1;fill-rule:nonzero;stroke:none"
           id="path5553"
           /><path
           d="m 208.16,188.706 -3.44,-2.096 -1.739,-1.059 -0.437,-0.267 -0.109,-0.066 -0.055,-0.033 c -0.422,0.707 3.646,-6.18 1.928,-3.263 l 0.007,0.004 0.014,0.008 0.027,0.016 0.222,0.129 0.888,0.518 c 2.373,1.382 4.782,2.788 7.229,4.216 4.896,2.855 9.947,5.804 15.175,8.86 -8.366,-4.866 -14.516,-8.449 -19.176,-11.169 -1.165,-0.68 -2.237,-1.306 -3.228,-1.884 l -0.727,-0.426 -0.353,-0.206 -0.087,-0.05 c 1.705,-2.889 -2.329,3.93 -1.911,3.23 l 0.006,0.003 0.01,0.007 0.022,0.012 0.042,0.027 0.17,0.104 1.296,0.793 c 1.657,1.014 3.036,1.861 4.226,2.592"
           style="fill:#ed1c24;fill-opacity:1;fill-rule:nonzero;stroke:none"
           id="path5555"
           /><path
           d="m 158.772,402.198 28.999,20.668 3.625,2.583 1.812,1.292 0.226,0.161 0.113,0.081 0.057,0.04 0.028,0.021 0.014,0.01 c -1.242,1.931 2.801,-4.308 -2.781,4.332 l -0.483,-0.277 -0.965,-0.554 -7.723,-4.428 -15.446,-8.856 19.987,11.342 2.499,1.418 1.249,0.708 0.624,0.355 0.313,0.177 0.01,0.006 c 5.305,-8.217 1.465,-2.282 2.647,-4.117 l -0.019,-0.014 -0.037,-0.025 -0.073,-0.052 -0.146,-0.104 -4.694,-3.313 -9.387,-6.628 z"
           style="fill:#ed1c24;fill-opacity:1;fill-rule:nonzero;stroke:none"
           id="path5557"
           /><path
           d="m 157.448,411.936 13.518,9.946 4.132,3.39 2.066,1.695 0.258,0.212 0.129,0.106 0.032,0.026 0.017,0.013 0.008,0.007 c 0.549,-0.794 -4.735,6.949 -2.503,3.668 l -0.072,-0.042 -0.574,-0.343 -1.147,-0.683 -9.183,-5.472 -18.365,-10.943 c 6.94,4.023 17.172,9.955 27,15.629 l 1.837,1.06 0.458,0.263 0.228,0.132 0.028,0.016 c 0.901,-1.313 -1.996,2.951 2.023,-2.942 l -0.013,-0.01 -0.051,-0.041 -0.103,-0.082 -0.821,-0.654 -3.231,-2.572 c -2.121,-1.687 -4.167,-3.312 -6.087,-4.834 -3.84,-3.043 -7.173,-5.67 -9.584,-7.545"
           style="fill:#ed1c24;fill-opacity:1;fill-rule:nonzero;stroke:none"
           id="path5559"
           /><path
           d="m 321.078,311.524 -4.598,-2.998 c 9.536,5.64 23.667,14.277 52.198,31.713 z"
           style="fill:#ed1c24;fill-opacity:1;fill-rule:nonzero;stroke:none"
           id="path5561"
           /><path
           d="m 410.005,371.225 14.44,8.322 -27.187,-15.021 z"
           style="fill:#ed1c24;fill-opacity:1;fill-rule:nonzero;stroke:none"
           id="path5563"
           /><path
           d="m 329.325,334.223 c 28.7,16.541 62.341,36.117 91.042,52.657 -62.342,-36.116 -99.118,-56.475 -91.042,-52.657"
           style="fill:#ed1c24;fill-opacity:1;fill-rule:nonzero;stroke:none"
           id="path5565"
           /></g></g></g></svg>