<svg xmlns="http://www.w3.org/2000/svg" xmlns:xlink="http://www.w3.org/1999/xlink" width="512" height="512" viewBox="0 0 283.5 283.5"><style type="text/css">
	.st0{fill:#E50046;}
</style><g><path class="st0" d="M116.2,18.2c1.3-0.2,2.6-0.5,3.9-0.7c0.4-0.1,0.7-0.6,1-0.6c0.4-0.1,0.8,0.1,1.3,0.1c0.1,0,0.3-0.1,0.4-0.2
		c0.4-0.1,0.8-0.5,1.2-0.4c1,0.3,2-0.2,2.9-0.3c1-0.1,2-0.4,3-0.7c0.2-0.1,0.5-0.1,0.7-0.2c2-0.3,3.9-0.7,5.9-1
		c0.5-0.1,1.1,0.1,1.6,0c1.3-0.2,2.6-0.4,4-0.4c0.7,0,1.4-0.4,2.2-0.4c1.7,0.1,3.5,0,5.2,0c0.3,0,0.6-0.1,1.1-0.1
		c-0.3-0.2-0.4-0.4-0.6-0.4c-1.3-0.1-2.5-0.2-3.8-0.2c-2.1,0-4.3,0.1-6.5,0.2c-2.2,0.1-4.4,0.3-6.5,0.6c-3.8,0.6-7.6,1.3-11.4,1.9
		c-0.7,0.1-1.4,0.4-2.1,0.6c-1.6,0.4-3.2,0.9-4.8,1.3c-1.2,0.3-2.3,0.6-3.5,1c-1.2,0.5-2.5,0.6-3.8,0.8c0-0.1-0.1-0.2-0.1-0.3
		c0.9-0.3,1.8-0.7,2.7-1c0.6-0.2,1.2-0.3,1.8-0.5c0.6-0.2,1.2-0.4,1.4-1.1l0,0c0.8,0.5,1.7,0.2,2.1-0.8c0.1,0.2,0.3,0.4,0.5,0.7
		c0.1-0.4,0.1-0.6,0.2-1c0.3,0.2,0.5,0.4,0.7,0.6c0.3-0.2,0.4-0.8,1-0.6c0.3,0.1,0.7-0.2,0.9-0.4c0.5-0.3,0.9-0.4,1.1,0.1
		c0.4-0.3,0.8-0.6,1.2-0.7c0.4,0,0.8,0.2,1.3,0.4c0.1-0.2,0.2-0.4,0.3-0.8c0.3,0,0.7-0.6,1,0.3c0,0.1,0.4,0.1,0.5,0.1
		c1.6-0.8,3.3-0.6,5-0.9c3.6-0.6,7.3-1.1,10.9-1.5c1.9-0.2,3.9,0,5.8-0.1c0.4,0,0.8-0.1,1.2-0.1l0,0c0.1,0.1,0.1,0.2,0.2,0.2
		c0.7-0.2,1.3-0.1,2,0.1c0.9,0.2,1.9,0,2.8,0.1c2,0.1,4.1,0.3,6.1,0.5c1.4,0.1,2.8,0.3,4.2,0.5c0.8,0.1,1.6,0.4,2.5,0.1
		c0.4-0.1,1.1-0.1,1.5,0.5c0.1,0.2,0.5,0.3,0.8,0.2c1.3-0.1,2.5,0.4,3.8,0.5c3,0.3,5.8,1.1,8.7,2c0.1-0.1,0.2-0.2,0.4-0.4
		c0.1,0.2,0.1,0.4,0.3,0.4c0.8,0.3,1.7,0.7,2.5,0.9c0.6,0.1,1.1,0.1,1.6,0.3c2.3,0.8,4.5,1.6,6.7,2.4c0.2,0.1,0.3,0.2,0.4,0.4
		c-0.1,0.2-0.2,0.3-0.4,0.5c0.6,0,0.6,0,0.4-0.5c0.6,0.4,1.3,0.7,1.9,1.1c0.7,0.5,1.4,0.7,2,0.3c0.4,0.4,0.7,0.9,1.1,1.1
		c1,0.5,2.1,0.9,3.1,1.5c2.1,1.3,4.2,2.7,6.4,4c0.5,0.3,1.2,0.5,1.7,0.9c0.5,0.4,0.8,1,1.3,1.4c0.6,0.6,1.3,1,2.1,1
		c-0.4,0.8,0.2,0.8,0.7,0.9c-0.2-0.3-0.5-0.6-0.7-0.9c-0.1-0.1-0.2-0.1-0.3-0.2c0-0.1,0.1-0.1,0.1-0.2c0.3,0.2,0.7,0.4,1,0.6
		c0.7,0.4,1.2,1.1,2.1,1.3c0.2,0,0.4,0.3,0.5,0.5c0.7,0.8,1.4,1.7,2.2,2.3c1.1,0.8,1.8,2,2.8,2.8c0.7,0.5,1.4,1,2,1.5
		c1.7,1.6,3.2,3.3,4.9,4.9c0.8,0.8,1.7,1.3,2.6,2c1.4,1,3,2,4.4,3.1c1.5,1.2,3.1,2.4,4.5,3.7c1.7,1.6,3.3,3.2,4.9,5
		c3.2,3.6,6.1,7.3,8.5,11.4c1.1,1.8,1.8,3.7,2.6,5.6c0.6,1.3,1.1,2.7,1.5,4.1c0.6,1.6,1.1,3.3,1.6,4.9c0.1,0.4,0.2,0.8,0.4,1.3
		c0.3,0.8,0.6,1.6,0.9,2.4c0.3,0.6,0.7,1.1,1.1,1.7c0.2,0.3,0.4,0.6,0.5,0.8c0.3,2.4,1.5,4.4,2.4,6.5c0.8,2,1.6,3.9,2.4,5.9
		c0.4,0.9,0.7,1.8,1.1,2.7c0.1,0.3,0.5,0.5,0.8,0.8c0,0.4-0.6,1,0.2,1.5c0.1,0.1,0,0.4,0,0.6c0.5,1.2,1,2.4,1.5,3.6
		c0.1,0.2,0.4,0.3,0.4,0.3c0,0.6,0,1.1,0.1,1.6c0.7,2,1.4,4,2.1,6c0.4,1,0.8,2,1.1,3c0.3,0.8,0.4,1.5,0.6,2.3c0.3,1.2,0.7,2.3,1,3.5
		c0.3,1.4,0.5,2.7,0.8,4.1c0.2,0.7,0.1,1.4,0.2,2.1c0.1,0.8,0,1.5,0.7,2.1c0.1,0.1,0.1,0.6-0.1,0.7c-0.5,0.5,0,0.6,0.1,0.8
		c-0.1,0.7-0.2,1.2-0.2,1.7c-0.1,3.1-0.1,6.3-0.1,9.4c0,1.1,0,2.2-0.1,3.3c0,0.4-0.3,0.8-0.3,1.3c-0.1,0.9-0.1,1.8-0.2,2.7
		c-0.3,2.1-0.6,4.3-0.9,6.4c0,0.2,0.1,0.4,0.2,0.6c1-0.6,0.5-1.9,1.3-2.4c0,0,0.1,0.1,0.2,0.1c-0.8,2.8-1.5,5.5-2.3,8.3
		c-0.9,3.1-1.9,6.1-2.8,9.2c-0.2,0.8-0.3,1.6-0.6,2.3c-1.1,2.9-2.2,5.8-3.4,8.7c-1.1,2.6-2.3,5.3-3.5,7.9c-1.3,2.7-2.6,5.3-4.1,7.9
		c-1.5,2.6-3.1,5.2-4.8,7.8c-1.3,1.9-2.7,3.8-4,5.6c-1.5,2-3,4.1-4.5,6.1c-1.1,1.4-2.1,3-3.5,4.2c-1,0.9-1.6,2.1-2.6,3.1
		c-1.4,1.4-2.7,2.9-4.1,4.3c-2.5,2.5-5.1,4.7-7.8,7c-0.1,0.1-0.2,0.2-0.3,0.2c-1.3,0.5-2.2,1.6-3.4,2.3c-1.2,0.7-2.3,1.6-3.4,2.3
		c-1.4,0.8-2.7,1.7-4.1,2.4c-3.2,1.6-6.4,3-9.6,4.6c-3.8,1.8-7.7,3.1-11.6,4.4c-2.3,0.8-4.6,1.6-7,2.3c-2.4,0.7-4.8,1.3-7.1,2
		c-1.6,0.5-3.2,1-4.8,1.4c-2.4,0.6-4.9,1.2-7.4,1.7c-2.3,0.5-4.6,0.9-6.9,1.4c-1.1,0.2-2.3,0.3-3.5,0.5c-0.4,0-0.8,0.1-1.2,0.2
		c-3.9,0.9-8,0.9-12,1.2c-2.2,0.2-4.4,0.3-6.6,0.4c-1.1,0-2.3-0.2-3.4,0c-2.3,0.3-4.6-0.2-6.9-0.1c-2.5,0-4.9-0.2-7.4-0.5
		c-2.9-0.3-5.8-0.4-8.6-0.7c-1.3-0.1-2.6-0.6-3.9-0.8c-2.1-0.4-4.3-0.7-6.4-1c-1.2-0.1-2.3-0.1-3.5-0.2c-1.2-0.1-2.3-0.3-3.5-0.5
		c-1.9-0.4-3.7-0.8-5.6-1.1c-0.4-0.1-0.9-0.2-1.3-0.4c-1.3-0.5-2.8-0.3-4-1.2c-0.1-0.1-0.4,0-0.6,0c-0.5-0.1-1.1-0.2-1.5-0.5
		c-3.3-2-6.8-3.6-10.2-5.4c-2.8-1.5-5.6-2.8-8.3-4.3c-1.5-0.9-2.9-2-4.3-3.1c-1.9-1.5-3.8-3.2-5.7-4.7c-1.6-1.2-3-2.8-4.5-4.1
		c-1-0.9-1.8-1.9-2.7-3c-0.6-0.8-1.5-1.3-2.3-2c-0.3-0.2-0.6-0.4-0.8-0.7c-1.7-2.2-3.5-4.4-5.2-6.6c-0.5-0.7-1-1.5-1.5-2.2
		c-0.3-0.5-0.7-1-1-1.5c-0.3-0.5-0.7-1-1-1.5c-1.3-2.3-2.5-4.5-3.8-6.8c-0.2-0.4-0.6-0.7-0.9-1c-1.4-1.2-2.7-2.4-4.1-3.7
		c-0.9-0.8-1.8-1.6-2.6-2.5c-0.5-0.5-0.9-1.2-1.5-1.8c-2.5-2.4-4.6-5.2-6.6-8.1c-1.3-1.9-2.4-3.9-3.2-6.2c-0.4-1.2-1-2.4-1.6-3.5
		c-1.1-2.1-2-4.2-2.5-6.5c-0.2-1-0.7-2-0.8-3c-0.1-1.4-0.8-2.8-0.8-4.2c0-1.1-0.4-2.3-0.6-3.5c-0.3-2-0.7-4-1.2-6
		c-0.3-1.1-0.1-2.2-0.1-3.4c0-0.5-0.1-1.1-0.1-1.6c0.1-2.3,0-4.6,0.2-6.9c0.1-1.2,0.6-2.4,0.9-3.6c0-0.2,0.2-0.3,0.2-0.4
		c0.1-2.3,1.2-4.3,1.7-6.5c0.2-1,0.7-1.9,1-2.8c0.6-1.8,1.2-3.6,1.9-5.4c0.6-1.4,1.3-2.7,1.9-4c0.7-1.3,1.4-2.6,2-4
		c0.9-1.7,1.7-3.3,2.6-5c1-1.8,2-3.5,3-5.3c1.7-3,3.6-6,5.6-8.8c1.3-1.9,2.7-3.7,4.2-5.4c1.4-1.7,2.9-3.3,4.5-4.8
		c0.8-0.8,0.8-1.7,0.9-2.7c0.3-2.1,0.3-4.2,0.6-6.3c0.1-1.2,0.3-2.3,0.8-3.4c0.8-1.8,1.3-3.8,2-5.6c0.4-1,0.9-2,1.3-3
		c0.8-2.2,1.7-4.4,2.5-6.6c0.2-0.5,0.5-0.9,0.8-1.4c0.5-1.1,1.1-2.2,1.6-3.3c0.6-1.2,1.1-2.3,1.7-3.5c0.7-1.3,1.3-2.5,2-3.7
		c0.2-0.4,0.4-0.8,0.7-1.1c1.2-1.1,1.8-2.6,2.8-3.8c1.2-1.6,2.3-3.3,3.5-4.8c0.7-0.9,1.3-1.8,2-2.7c1.1-1.4,2.4-2.6,3.8-3.6
		c2.3-1.7,4.4-3.8,6.5-5.7c1.3-1.2,2.8-2.3,4.2-3.5c0.2-0.2,0.3-0.4,0.5-0.5c0.4-0.3,0.8-0.7,1.2-0.7c0.6,0,1-0.4,1.4-0.7
		c2.2-1.6,4.3-3.1,6.5-4.7c0.4-0.3,0.8-0.4,1.3-0.5c0.9-0.3,1.8-0.9,2.7-1.3c-0.1-0.2-0.2-0.4-0.3-0.6c0.2,0,0.3-0.2,0.4-0.1
		c1.1,0.6,2-0.2,2.8-0.5c0.6-0.3,1.2-0.7,1.8-1.1c0.1,0,0.2-0.1,0.2-0.1c0.9,0.2,1.2-0.6,1.8-1c0.1,0,0.1-0.1,0.2-0.1
		c0.2,0.1,0.5,0.3,0.9,0.5c-0.1-0.4-0.2-0.6-0.3-0.9c0.3,0,0.5,0,0.8,0l0,0c0.1,0.4,0.4,0.4,0.7,0.2c0.9-0.4,1.8-0.6,2.6-1.2
		c0.9-0.6,1.9-0.8,2.9-1.2c0.5-0.2,0.9-0.3,1.5-0.4c-1.7,1.5-4.2,1.6-6,3.4c0.6,0.3,1,0.1,1.3-0.1c1.7-0.6,3.4-1.3,5.1-2
		c0.8-0.3,1.6-0.4,2.3-0.7c1.2-0.4,2.4-1,3.6-1.5c0.5-0.2,1-0.3,1.5-0.5c0.2,0,0.3-0.1,0.5-0.1c1.4,0.2,2.3,0,3.4-0.9
		c0.2-0.1,0.5-0.2,0.8-0.2c0.7-0.1,1.5-0.1,2.2-0.2C115.9,18.6,116,18.3,116.2,18.2L116.2,18.2z M198.8,29.9
		c0.3,0.1,0.6,0.1,1.1,0.2C199.4,29.6,199.1,29.8,198.8,29.9c-0.1-0.2-0.1-0.5-0.2-0.7c-0.1,0-0.1,0-0.2,0
		C198.5,29.4,198.6,29.7,198.8,29.9z M197,235.2c0.6,0.3,0.6-0.3,0.8-0.4c-0.1-0.1-0.1-0.1-0.2-0.2C197.5,234.7,197.3,235,197,235.2
		c-0.3,0-0.6,0-0.9,0c0,0.1,0,0.1,0,0.2C196.4,235.3,196.7,235.2,197,235.2z M154.8,16.4c-0.1-0.2-0.2-0.4-0.2-0.6
		C154.4,16.2,154,16.7,154.8,16.4c0.2,0.2,0.4,0.4,0.6,0.6c0.1-0.2,0.2-0.3,0.4-0.6C155.3,16.5,155.1,16.5,154.8,16.4z M96.3,27.4
		c0.3,0.2,0.6,0.2,0.8-0.2c0-0.1-0.2-0.3-0.3-0.5C96.5,27,96.4,27.2,96.3,27.4c-0.5-0.3-0.5-0.3-0.9,0.1
		C95.8,27.8,96.1,27.7,96.3,27.4z M272.4,157c0,0.3,0,0.6,0,0.9c0.1,0,0.1,0,0.2,0C272.6,157.6,272.5,157.3,272.4,157
		c0.1-0.2,0.1-0.4,0.2-0.7c-0.1,0-0.1,0-0.2-0.1c-0.2,0.2-0.3,0.4-0.5,0.7c0.1,0.1,0.2,0.1,0.3,0.1C272.3,157,272.3,157,272.4,157z
		 M120.2,20.3c0.5,0.1,0.9,0.3,1.4,0.4c0-0.1,0-0.2,0.1-0.3C121.2,20.4,120.7,20.3,120.2,20.3c0.1-0.2,0.1-0.5,0.2-0.8
		C119.7,19.8,119.7,19.8,120.2,20.3z M92.2,25.7c-0.2,0-0.4-0.1-0.7-0.1c0,1,0.1,1.1,1,1.1c0,0.1-0.1,0.2-0.1,0.4
		c0.1,0,0.1,0.1,0.2,0.1c0.4-0.4,0.8-0.8,1.2-1.2c-0.2-0.2-0.3-0.3-0.4-0.4c0.2,0,0.3-0.1,0.5-0.1c0-0.1,0-0.1,0-0.2
		c-0.2,0-0.5-0.1-0.9-0.2c0.2,0.2,0.3,0.4,0.4,0.5c-0.3,0.4-0.7,0.8-1,1.2C92.4,26.4,92.3,26,92.2,25.7c0.2,0.1,0.3,0.2,0.5,0.3
		c0-0.1,0.1-0.2,0.1-0.3C92.6,25.7,92.3,25.7,92.2,25.7z M185.7,240.7c-0.6-0.3-1.2-0.5-1.8-0.8c-0.1,0.3-0.3,0.6-0.4,0.9
		C184.3,240.8,185,240.7,185.7,240.7c0.1-0.3,0.1-0.6,0.3-1.1c-0.4,0-0.7,0-1.1,0C185.2,240.1,185.4,240.4,185.7,240.7z M100.4,25.7
		c0.5,0.5,0.7,0.5,1.2-0.2c0.4,0,0.7,0.1,1.1,0.1c-0.4-0.5-0.7-0.4-1.1-0.1c-0.1-0.1-0.2-0.4-0.3-0.4
		C101,25.1,100.5,25.1,100.4,25.7c-0.5-0.1-1-0.3-1.5,0.4C99.6,25.9,100,25.8,100.4,25.7z M194.3,236c0,0.3-0.1,0.6,0.5,0.7
		C194.6,236.5,194.5,236.3,194.3,236c-0.8-0.2-1,0.6-1.5,0.8c0.4,0.5,0.7,0.6,1,0.1C194,236.7,194.2,236.4,194.3,236z M146.6,16.6
		c-0.6-0.2-0.7-0.1-0.9,0.4C146.1,16.8,146.3,16.7,146.6,16.6c0.1,0.1,0.1,0.4,0.2,0.4c0.6,0.1,1.2,0.3,1.5-0.4
		c-0.1,0.3-0.2,0.6,0.3,0.8c0.7,0.2,0.8-0.3,1-0.8c0.4,0,0.7,0,1,0c-0.4-0.3-0.9-0.5-1.3-0.7c-0.2-0.1-0.5-0.1-0.6,0.1
		c-0.1,0.2-0.1,0.4-0.1,0.6c0,0.1,0.1,0.2,0.2,0.4c-0.2-0.1-0.3-0.1-0.4-0.1c-0.1-0.1-0.1-0.2-0.2-0.3c-0.5-0.2-1-0.4-1.5-0.5
		C146.7,16.3,146.6,16.4,146.6,16.6z M163.1,18.1c0.7,0.8,1.6,0.4,2.4,0.5c0,0,0.1-0.2,0.1-0.3c0.1,0.3,0.1,0.5,0.1,0.8
		c0.1,0.5,0.3,0.7,0.8,0.4c0.2-0.1,0.3-0.2,0.5-0.4c-0.3-0.4-0.5-0.7-0.8-1c-0.3,0.1-0.4,0.2-0.6,0.3c-0.3-0.1-0.5-0.3-0.8-0.3
		c-0.3,0-0.5,0.1-0.8,0.2C163.7,18.1,163.4,18.1,163.1,18.1c0.1-0.3,0.2-0.6,0.4-1c-0.8-0.5-0.8,0.5-1.3,0.6
		c0.1-0.2,0.1-0.4,0.2-0.7c-0.5,0-0.9,0-1.1,0.1c-0.2,0.1-0.8,0.1-0.6,0.7c-0.4,0-0.6,0.2-1.3,0.8c0.5,0.1,1.1,0.2,1.6,0.3
		c0.5,0.1,0.9,0,0.9-0.6C162.3,18.2,162.7,18.1,163.1,18.1z M217.5,40.1c0.7,0.8,1.5,1.5,2.4,2.2c-0.3-1-1.1-1.6-1.9-2.2
		C217.9,40.1,217.7,40.2,217.5,40.1c0.3-0.4,0-0.6-0.3-0.9c-0.5-0.4-0.9-0.8-1.4-1.2c-0.1-0.1-0.4-0.2-0.6-0.3
		c-0.1,0.1-0.1,0.1-0.2,0.2C215.9,38.7,216.7,39.4,217.5,40.1z M92.2,29.8c-0.9-0.9-1.4,0.2-2,0.5c0.5-0.1,0.9,0.8,1.5,0.1
		c-0.2-0.1-0.3-0.1-0.5-0.2c0.2-0.4,0.4-0.5,0.8-0.3C92,30,92.1,29.9,92.2,29.8c0.2-0.3,0.3-0.3,0.5,0c0,0.1,0.1,0.1,0.2,0.1
		c0.1,0,0.1-0.1,0.2-0.1c-0.2-0.3-0.3-0.5-0.6-0.9C92.3,29.4,92.3,29.6,92.2,29.8z M268,118.2c-0.7-0.2-0.7,0.2-0.7,0.7
		c0.1,0.7,0.5,0.6,1.1,0.6C268.2,119,268,118.6,268,118.2c0-0.1,0.1-0.2,0.1-0.3c-0.2-0.7-0.5-1.4-0.7-2.1c0-0.1-0.2-0.2-0.3-0.3
		c-0.2,0.2-0.3,0.3-0.4,0.4c0-0.8,0.3-1.7-0.2-2.4c-0.7-0.9-0.9-2-1.1-3.1c0-0.3-0.2-0.6-0.3-0.9c-0.4-0.8-0.8-1.7-1.2-2.5
		c-0.6-1.4-1.3-2.7-1.7-4.2c-0.4-1.5-1.6-2.6-1.8-4.2c0-0.1-0.1-0.2-0.1-0.2c-0.6-0.5-0.7-1.2-0.9-1.9c-0.1-0.3-0.3-0.6-0.4-0.8
		c-0.2,0.4-0.2,0.9-0.1,1.3c0.3,1.4,0.8,2.7,1.4,4c1.2,3,2.4,6,3.6,9c0.3,0.7,0.6,1.4,0.8,2.1c-0.3,0-0.5-0.1-0.9-0.1
		c0.1,0.3,0.2,0.4,0.3,0.5c0.2-0.2,0.4-0.3,0.6-0.4c0.4,1,0.8,1.9,1.1,2.9c0.2,0.6,0.4,0.9,1,0.9c-0.1,0.1-0.2,0.1-0.2,0.2
		c-0.2,0.7,0,1.4,0.6,1.7C267.4,117.9,267.7,118.1,268,118.2z M126.1,19.8c-0.1,0.1-0.1,0.2-0.2,0.4c0.7-0.2,1.2-0.4,1.7-0.4
		c0.6-0.1,0.7-0.8,1.4-0.7c-0.3-0.7-0.9-0.2-1.3-0.2c0-0.2-0.1-0.4-0.1-0.6C126.7,18.7,126.2,19.1,126.1,19.8
		c-0.4-0.1-0.8-0.2-1.2,0.3C125.3,20,125.7,19.9,126.1,19.8z M141.5,18.2c0.5-0.7,1.1-1.3,1.8-1.8c-0.1,0.8,0.7,0.4,1,1
		c0.1-1.1-0.4-1.1-1-1c-0.1,0-0.3-0.1-0.4-0.1c-1.2,0.2-2.2,0.6-3.2,1.2c0.1-0.3,0.2-0.6,0.3-0.9c-0.4,0-0.6,0.1-0.9,0.1
		c0.1,0.3,0.2,0.6,0.3,0.9c-0.4,0.1-0.8,0.2-1.2,0.4c0-0.1,0-0.3,0-0.4c-0.9,0.3-1.7,0.2-2.5-0.5c0.1,0.6,0.2,1.1,0.3,1.5
		c-0.3-0.2-0.5-0.5-0.9-0.8c0,0.3,0,0.5,0.1,0.9c0.3-0.1,0.5-0.1,0.8-0.1c0.3,0,0.6,0.2,0.9-0.2c0.1-0.2,0.5-0.3,0.6-0.2
		c1.1,0.5,2.3,0.1,3.4,0.3C141,18.4,141.3,18.2,141.5,18.2L141.5,18.2z M269.9,128.2c0.2,1.2,0.5,2.3,0.7,3.5
		c0.1,0.4,0.2,0.7,0.2,1.1c-0.1,0.9,0.2,1.7,0.3,2.5c0.2,1.4,0.6,2.8,0.8,4.3c0.1,0.6,0.3,0.9,0.6,1.2c-0.1,0.3-0.2,0.6-0.3,0.9
		c0.1,0,0.2,0,0.3,0c0-0.3-0.1-0.6-0.1-0.9c0.2,0.1,0.3,0.2,0.5,0.3c0.1-0.6,0.1-1.4-0.2-1.5c-0.6-0.2-0.4-0.8-0.3-0.9
		c0.4-0.5,0.2-0.8,0-1.3c-0.2-0.3-0.3-0.8-0.3-1.1c-0.1-0.6,0.1-1.2-0.2-1.8c-0.3-0.6-0.3-1.2-0.4-1.8c-0.2-1.1-0.6-2.1-0.4-3.3
		c0.1-0.3,0.2-0.8-0.3-1.1c-0.1,0.1-0.2,0.2-0.2,0.3c-0.2-0.7-0.4-1.4-0.6-2.2c-0.1,0-0.2,0-0.3,0.1
		C269.7,127,269.8,127.6,269.9,128.2c-0.4,0.1-0.8,0.1-1.4,0.1c0.4,0.4,0.6,0.5,0.8,0.7C269.5,128.7,269.7,128.5,269.9,128.2z
		 M211.4,34.9c0.1,0,0.1-0.1,0.2-0.1c-0.1-0.2-0.3-0.4-0.4-0.6c-0.2-0.2-0.5-0.4-0.8-0.5c-1.4-1.1-2.9-2.3-4.3-3.4
		c-1.2-0.9-2.6-1.7-3.8-2.6c-1.3-0.8-2.5-1.6-3.8-2.4c-0.7-0.4-1.5-0.6-2.1-1.1c-1.9-1.4-4.1-2.1-6.2-3c-2.8-1.2-5.7-2.1-8.6-3
		c-1.9-0.6-3.9-1.2-5.9-1.6c-1.6-0.4-3.3-0.6-5-0.9c-1.5-0.3-3-0.7-4.5-1c-0.4-0.1-0.7-0.2-1.1-0.2c-1.7,0.1-3.2-0.5-4.9-0.6
		c-1.9-0.1-3.8-0.2-5.7-0.5c-0.1,0-0.3,0.1-0.4,0.1c2.7,0.6,5.4,0.9,8.1,1.4c2,0.3,4,0.8,6.1,1.2c1.1,0.2,2.2,0.6,3.3,0.8
		c3.5,0.8,7,1.7,10.4,2.8c0.5,0.2,1.1,0.1,1.7,0.2c0.2,0.1,0.5,0.4,0.9,0.5c1.1,0.4,2.1,0.8,3.2,1.2c1.6,0.7,3.3,1.5,4.9,2.1
		c3.4,1.3,6.5,2.9,9.6,4.8c2.5,1.6,4.8,3.3,7.2,5C210,33.9,210.7,34.4,211.4,34.9z M119.4,21.4c-3.1-0.2-16.5,4.4-17.8,6
		C107.5,24.9,113.6,23.5,119.4,21.4z M268.9,120.6c-0.7-0.2-1.1,0-0.9,0.6c0.4,1.2,0.8,2.3,1.3,3.5c0,0.1,0.3,0.1,0.7,0.3
		c-0.3-1.3-0.6-2.5-0.9-3.7c-0.3,0.2-0.4,0.3-0.7,0.6C268.6,121.3,268.8,121,268.9,120.6z M274,151.4c-0.1,0-0.2,0-0.3,0
		c-0.1,1-0.1,2-0.3,3c-0.2,1-0.4,2.1-0.2,3.1C274.1,155.5,273.9,153.5,274,151.4z M153.5,17.3c-0.4-1.4-0.9-1.6-2-0.9
		C152.4,16.5,152.5,17.6,153.5,17.3z M131.7,18.3c0-0.2,0-0.4,0-0.6c-0.8,0-0.6,0.9-1.3,1c0.8,0.7,1.4,0.4,2,0c0,0,0-0.1,0.1-0.3
		C132.3,18.4,132,18.3,131.7,18.3z M182.1,240.3c-0.7,0.5-1.8-0.1-1.9,1.3c0.6-1,1.2,0.1,1.5-0.1
		C181.8,241.1,181.9,240.8,182.1,240.3z M177.8,242.4c0.5,0.1,0.7-0.5,1.3-0.3c0.2,0.1,0.5-0.4,0.3-0.7c-0.4,0-0.8-0.1-1.1,0
		C177.9,241.6,177.4,241.8,177.8,242.4z M272.9,145.6c0.8-0.4,0.1-0.9,0.3-1.4c0.3-0.9-0.3-0.7-0.9-0.6
		C272.5,144.4,272.7,145,272.9,145.6z M103.2,23.4c-0.7,0.3-1.5,0.4-2,1C101.9,24.3,102.7,24.1,103.2,23.4z M162.4,245.4
		c0.2-0.4,0.3-0.6,0.4-0.8c-0.6-0.2-1.1-0.2-1.6,0.4C161.6,245.1,162,245.2,162.4,245.4z M190.7,25.5c0.6,0.5,1.3,1.1,2.1,1.2
		c0-0.1,0.1-0.2,0.1-0.2C192.1,26.1,191.4,25.8,190.7,25.5z M169.9,19.6c0.4-0.2,0.3-0.6,0.1-0.8c-0.3-0.4-0.8-0.2-1.2-0.2
		c0.1,0.4,0.1,0.6,0.6,0.5C169.5,19,169.8,19.4,169.9,19.6z M213,243.9c-1.1,0.3-1.1,0.3-1.5,1.1C212.1,244.5,212.6,244.2,213,243.9
		z M172.4,242.8c0.2,0.8,0.2,0.8,1.2,0.5C173.4,242.4,172.8,243.1,172.4,242.8z M98.7,27.3c-0.1-0.4-0.2-0.8-0.3-1.3
		c-0.3,0.1-0.6,0.3-0.9,0.4C98.1,26.6,97.6,27.9,98.7,27.3z M122.8,19.8c0-0.1,0-0.3,0-0.4c-0.5,0-0.9-0.1-1.5,0.3
		C121.8,19.8,122.3,19.8,122.8,19.8z M157.8,17.4c-0.2-1.1-0.2-1.1-1.6-1.3C156.9,16.4,157.5,16.7,157.8,17.4z M273,152.9
		c-0.9,0.2-0.6,0.7-0.6,1.2C273,153.9,272.9,153.4,273,152.9z M171.7,19.8c0-0.4-0.1-0.8-0.6-0.7c-0.1,0-0.3,0.2-0.3,0.3
		c0.1,0.4,0.4,0.5,0.8,0.5C171.6,19.8,171.6,19.8,171.7,19.8z M104.5,24.8c0.5-0.1,0.8-0.1,1.2-0.2c-0.3-0.3-0.6-0.5-0.8-0.7
		C104.7,24.1,104.6,24.3,104.5,24.8z M229.7,230.2c-0.1-0.1-0.1-0.1-0.2-0.1c-0.4,0.4-0.9,0.7-1.1,1.5
		C228.9,231,229.3,230.6,229.7,230.2z M269.6,130.1C269.6,130.1,269.5,130.1,269.6,130.1c-0.1,0-0.1,0-0.1,0
		c-0.1,0.3-0.1,0.6-0.2,0.9C269.8,130.9,269.8,130.9,269.6,130.1z M94.2,28c-0.2,0.3-0.3,0.5-0.5,0.9c0.4,0,0.7,0,1.1,0
		C94.6,28.5,94.5,28.3,94.2,28z M153.7,17.9c0,0.1,0,0.2,0,0.3c0.3-0.1,0.7-0.2,1-0.2c0-0.1,0-0.2-0.1-0.3
		C154.3,17.7,154,17.8,153.7,17.9z M179.4,22.1c0.2-0.2,0.4-0.4,0.8-0.6c-0.6,0-1,0-1.4,0C179,21.6,179.2,21.8,179.4,22.1z
		 M90.5,26.8c-0.8,0.4-0.8,0.4-0.3,0.9C90.3,27.3,90.4,27.1,90.5,26.8z M124.6,18.2c-0.7-0.6-0.9-0.3-1.3,0
		C123.7,18.2,124,18.2,124.6,18.2z M173.5,20c0-0.1,0.1-0.2,0.1-0.3c-0.3-0.1-0.7-0.3-1-0.4c0,0.1-0.1,0.1-0.1,0.2
		C172.9,19.6,173.2,19.8,173.5,20z M273,167c0.1,0.1,0.3,0.3,0.4,0.4c0.1-0.2,0.2-0.4,0.2-0.6c0-0.2,0.1-0.4,0.1-0.7
		C273.4,166.5,273.2,166.8,273,167z M147.5,17.8c0,0.1,0,0.1,0,0.2c0.4,0,0.7,0.1,1.1,0.1c0-0.1,0-0.1,0-0.2
		C148.3,17.8,147.9,17.8,147.5,17.8z M106.1,22.7c0-0.1-0.1-0.2-0.1-0.3c-0.4,0.1-0.9,0.3-1.3,0.4c0,0.1,0,0.1,0.1,0.2
		C105.2,22.9,105.7,22.8,106.1,22.7z M262.2,149.3C262.1,149.3,262.1,149.3,262.2,149.3c0,0.5,0,1,0,1.5c0.1,0,0.1,0,0.2,0
		C262.3,150.3,262.2,149.8,262.2,149.3z M272.9,147.6c0.1,0,0.2,0.1,0.3,0.1c0.1-0.3,0.2-0.5,0.3-0.8c-0.1,0-0.2-0.1-0.4-0.1
		C273,147.1,272.9,147.4,272.9,147.6z M268.8,127.4c0.1-0.1,0.1-0.2,0.2-0.3c-0.2-0.1-0.4-0.2-0.6-0.3c0,0.1-0.1,0.3-0.1,0.3
		C268.5,127.2,268.6,127.3,268.8,127.4z M159.9,16.5c-0.1,0-0.1,0-0.2,0c-0.1,0.3-0.1,0.6-0.1,0.9c0.1,0,0.2,0,0.3,0
		C159.8,17.1,159.8,16.8,159.9,16.5z M167.2,244.4c0.1-0.1,0.2-0.1,0.3-0.1c-0.2-0.2-0.3-0.4-0.5-0.6c-0.1,0-0.1,0.1-0.2,0.1
		C167,244,167.1,244.2,167.2,244.4z M176.1,241.9c-0.2,0.8,0.1,0.8,0.6,0.8C176.5,242.4,176.4,242.2,176.1,241.9z M108.4,23.1
		c-0.8,0.1-0.8,0.1-0.3,0.6C108.2,23.5,108.3,23.3,108.4,23.1z M168.8,19.7c-0.1,0.1-0.1,0.2-0.2,0.3c0.3,0.1,0.5,0.3,0.8,0.4
		c0.1-0.1,0.1-0.2,0.1-0.3C169.3,20,169.1,19.8,168.8,19.7z M175.1,20c0.1,0.7,0.4,0.7,1,0.5C175.7,20.3,175.5,20.2,175.1,20z
		 M109.2,22.4c0.2,0.4,0.2,0.7,0.3,1C110.1,22.9,110,22.6,109.2,22.4z M115.3,20.9c0.8,0.3,0.8,0.3,0.8-0.2
		C115.8,20.8,115.6,20.8,115.3,20.9z M176.8,22.1c0,0,0-0.1,0-0.1c-0.3-0.1-0.5-0.1-0.8-0.2c-0.1,0-0.2,0.1-0.3,0.1
		c0.1,0.1,0.1,0.1,0.1,0.2C176.2,22.1,176.5,22.1,176.8,22.1z M107.7,21.6c0,0.1,0,0.1,0,0.2c0.2,0,0.4,0,0.7,0c0-0.1,0-0.1,0-0.2
		C108.2,21.6,107.9,21.6,107.7,21.6z M159.7,245c0.5,0.4,0.8,0.4,1.2,0C160.4,245,160.1,245,159.7,245z M103.8,25.3
		c-0.1-0.6-0.1-0.6-0.6-0.4C103.3,25.1,103.5,25.2,103.8,25.3z M224.7,235.4c0-0.1,0-0.1,0-0.2c-0.2,0-0.4,0-0.6,0.1
		c0,0.1,0,0.1,0,0.2C224.3,235.4,224.5,235.4,224.7,235.4z M227.6,232.3c-0.1-0.1-0.1-0.2-0.2-0.3c-0.2,0.1-0.4,0.3-0.6,0.5
		c0,0.1,0.1,0.1,0.1,0.1C227.2,232.6,227.4,232.4,227.6,232.3z M91.9,27.4c-0.4-0.3-0.6-0.4-0.9-0.7C90.9,27.4,91.3,27.4,91.9,27.4z
		 M106.6,23.3c-0.1,0.2-0.3,0.3-0.3,0.4c0,0.1,0.2,0.3,0.3,0.3c0.1,0,0.2-0.1,0.3-0.2C106.8,23.7,106.7,23.6,106.6,23.3z
		 M177.9,21.7c0.8,0.2,0.7-0.2,0.6-0.6C178.3,21.3,178.1,21.5,177.9,21.7z M117.8,20.8c-0.3-0.1-0.5-0.2-0.8-0.4
		C117.2,21,117.2,21,117.8,20.8z M273,129.8c0,0-0.1,0-0.1,0c0,0.3,0,0.7,0,1c0,0,0.1,0,0.1,0C273,130.5,273,130.1,273,129.8z
		 M270,132.7c0-0.1,0-0.1,0-0.2c-0.2,0-0.4-0.1-0.5-0.1c0,0.1,0,0.1,0,0.2C269.6,132.7,269.8,132.7,270,132.7z M145.9,17.8
		c0,0,0,0.1,0,0.1c0.2,0.1,0.5,0.1,0.7,0.2c0-0.1,0-0.1,0-0.2C146.4,17.8,146.2,17.8,145.9,17.8z M169.1,243.8
		c0-0.1-0.1-0.2-0.1-0.3c-0.2,0.1-0.4,0.1-0.5,0.2c0,0.1,0,0.1,0,0.1C168.8,243.9,168.9,243.9,169.1,243.8z M184.3,23.4
		c0-0.1,0-0.2,0.1-0.3c-0.2,0-0.4,0-0.6,0c0,0.1,0,0.1,0,0.2C183.9,23.4,184.1,23.4,184.3,23.4z M174.4,243c0.1,0,0.1,0,0.2,0
		c0-0.2,0-0.4,0-0.6c-0.1,0-0.2,0-0.2,0.1C174.4,242.7,174.4,242.9,174.4,243z M187.9,26.1c0-0.1,0-0.1,0-0.2c-0.2,0-0.5-0.1-1-0.2
		c0.3,0.2,0.5,0.3,0.6,0.4C187.6,26.2,187.7,26.2,187.9,26.1z M272.9,158.5c-0.1,0-0.2,0-0.3-0.1c0,0.2-0.1,0.4-0.2,0.6
		c0.1,0,0.1,0.1,0.2,0.1C272.7,158.9,272.8,158.7,272.9,158.5z M247.6,206.3c-0.1-0.1-0.1-0.1-0.1-0.1c-0.1,0-0.2,0-0.2,0.1
		c0,0.1,0,0.2,0,0.3C247.4,206.4,247.5,206.3,247.6,206.3z M47.2,72.5c0.1,0,0.1,0,0.2,0c0-0.2,0.1-0.4,0.1-0.6c0,0-0.1,0-0.2,0
		C47.4,72.1,47.3,72.3,47.2,72.5z M180.8,22.5c0-0.1,0-0.2,0-0.2c-0.2,0-0.4,0-0.6-0.1c0,0.1,0,0.1,0,0.2
		C180.4,22.5,180.6,22.5,180.8,22.5z M222.3,237.3c-0.1-0.1-0.1-0.1-0.2-0.2c-0.2,0.1-0.3,0.3-0.5,0.4c0.1,0.1,0.1,0.1,0.1,0.1
		C222,237.6,222.1,237.5,222.3,237.3z M186.8,239.1c-0.1,0-0.1,0-0.2,0.1c0.1,0.2,0.1,0.4,0.1,0.6c0.1,0,0.1,0,0.2-0.1
		C186.9,239.5,186.9,239.3,186.8,239.1z M113.5,20.4c0,0.1,0.1,0.1,0.1,0.2c0.1-0.1,0.3-0.2,0.4-0.3c0,0-0.1-0.1-0.1-0.1
		C113.8,20.2,113.7,20.3,113.5,20.4z M150.8,17.8c0,0.1,0,0.1,0,0.2c0.1-0.1,0.3-0.1,0.4-0.2c0,0,0-0.1,0-0.1
		C151.1,17.8,151,17.8,150.8,17.8z M111.3,22.5c0.1,0,0.2,0,0.2,0c0-0.2,0-0.4,0-0.5c-0.1,0-0.1,0-0.2,0
		C111.3,22.2,111.3,22.4,111.3,22.5z M124.2,20.3c0,0,0-0.1,0-0.1c-0.2,0.1-0.4,0.1-0.6,0.2c0,0.1,0.1,0.1,0.1,0.2
		C123.8,20.5,124,20.4,124.2,20.3z M100.5,24.8c0,0,0-0.1-0.1-0.2c-0.2,0-0.3,0.1-0.5,0.1c0,0.1,0,0.1,0.1,0.2
		C100.2,24.9,100.4,24.8,100.5,24.8z M171.2,243.7c-0.1-0.1-0.2-0.2-0.3-0.2c-0.1,0-0.2,0.1-0.3,0.1c0.1,0.1,0.2,0.2,0.3,0.3
		C171,243.9,171.1,243.8,171.2,243.7z M264.4,148.1c0-0.1,0-0.1,0-0.2c-0.1,0-0.2,0.1-0.2,0.1c0,0,0,0.1,0.1,0.2
		C264.2,148.2,264.3,148.1,264.4,148.1z M185.2,23.4c-0.1,0.1-0.1,0.1-0.1,0.2c0.2,0.1,0.4,0.3,0.6,0.4c0-0.1,0.1-0.1,0.1-0.2
		C185.6,23.7,185.4,23.5,185.2,23.4z M261.8,147.7c0,0,0.1,0,0.1,0c0-0.2,0-0.4-0.1-0.6c0,0-0.1,0-0.1,0
		C261.8,147.3,261.8,147.5,261.8,147.7z M156,245.5c-0.2-0.1-0.3-0.2-0.3-0.2c-0.1,0-0.2,0.1-0.2,0.2c0,0.1,0.1,0.2,0.2,0.2
		C155.7,245.7,155.8,245.6,156,245.5z M202.8,249.2c-0.1-0.1-0.1-0.2-0.1-0.2c-0.1,0-0.2,0.1-0.3,0.1c0,0.1,0.1,0.1,0.1,0.1
		C202.6,249.3,202.7,249.2,202.8,249.2z M145.1,16.9c0,0,0.1-0.1,0.1-0.1c-0.1-0.1-0.3-0.2-0.4-0.3c0,0.1-0.1,0.1-0.1,0.2
		C144.8,16.7,145,16.8,145.1,16.9z"/></g></svg>